<svg version="1.1" id="Layer_1" xmlns="http://www.w3.org/2000/svg" xmlns:xlink="http://www.w3.org/1999/xlink" x="0px" y="0px"
	 width="100%" viewBox="0 0 1536 1024" enable-background="new 0 0 1536 1024" xml:space="preserve">
<path fill="#FFFFFF" opacity="1.000000" stroke="none" 
	d="
M966.000000,1025.000000 
	C644.000000,1025.000000 322.500000,1025.000000 1.000000,1025.000000 
	C1.000000,683.666687 1.000000,342.333344 1.000000,1.000000 
	C513.000000,1.000000 1025.000000,1.000000 1537.000000,1.000000 
	C1537.000000,342.333344 1537.000000,683.666687 1537.000000,1025.000000 
	C1346.833374,1025.000000 1156.666626,1025.000000 966.000000,1025.000000 
M836.577209,549.465454 
	C836.577209,549.465454 836.532532,549.546936 836.671936,549.892883 
	C836.802795,550.112061 836.981689,550.280273 837.310242,550.623901 
	C837.310242,550.623901 837.479858,550.805176 837.784851,551.269775 
	C838.392944,551.967896 839.000977,552.666077 839.833374,553.170837 
	C839.833374,553.170837 839.573181,553.312256 839.853516,553.983582 
	C840.868286,554.724792 841.839844,556.031311 842.905090,556.112671 
	C848.513916,556.541321 854.152649,556.926697 859.768250,556.792297 
	C863.410339,556.705139 862.734619,554.581177 860.693054,552.189941 
	C860.693054,552.189941 860.286560,552.063354 860.158630,551.936279 
	C860.158630,551.936279 859.904663,551.684753 859.795288,551.327026 
	C859.795288,551.327026 859.487793,551.113953 859.145325,550.614258 
	C857.296692,548.579102 855.448059,546.543945 853.491455,544.493408 
	C853.491455,544.493408 853.512085,544.386292 853.192139,543.895020 
	C852.493835,543.215637 851.795593,542.536255 851.046570,541.952148 
	C851.046570,541.952148 851.145020,541.907898 850.946167,541.342651 
	C850.377747,540.799072 849.809326,540.255493 849.193970,539.831238 
	C849.193970,539.831238 849.317627,539.797546 849.118835,539.234619 
	C848.576355,538.667114 848.033936,538.099548 847.145264,537.550537 
	C847.145264,537.550537 847.496582,537.512695 847.212219,536.979980 
	C846.505798,536.273315 845.799377,535.566650 845.043274,534.953674 
	C845.043274,534.953674 845.140320,534.910828 844.932800,534.322388 
	C844.105713,533.414307 843.278625,532.506165 841.997559,531.965332 
	C842.149109,531.844666 842.300720,531.723938 842.245300,531.097839 
	C841.753845,530.573547 841.262390,530.049255 840.640808,529.375183 
	C840.640808,529.375183 840.510559,529.225525 840.190735,528.733215 
	C839.277161,527.690796 838.363647,526.648315 836.984619,525.798645 
	C837.138672,525.729126 837.292786,525.659546 837.237488,525.078979 
	C836.847412,524.708130 836.457336,524.337280 835.836487,523.329041 
	C832.484375,519.237549 829.132324,515.146057 825.582458,510.813141 
	C835.797607,499.317139 845.852478,488.056030 855.815613,476.714294 
	C856.959534,475.412079 857.590820,473.659515 858.844116,471.432831 
	C853.623169,471.432831 849.642578,471.686066 845.709045,471.364166 
	C841.466187,471.016968 838.710022,472.583191 836.031616,475.898193 
	C827.164185,486.873108 817.935730,497.556305 808.335632,507.479248 
	C808.335632,495.704895 808.335632,483.930573 808.335632,471.836609 
	C802.879944,471.836609 797.633850,471.836609 792.166504,471.836609 
	C792.166504,499.876953 792.166504,527.759888 792.166504,555.876465 
	C797.612427,555.876465 802.838196,555.876465 808.586182,555.876465 
	C808.586182,551.177734 808.466125,546.715454 808.618286,542.262451 
	C808.786987,537.325317 809.204346,532.396790 809.590210,527.346375 
	C809.590210,527.346375 809.554993,527.482849 810.026550,527.150879 
	C810.492554,526.545166 810.958557,525.939453 811.096497,525.171082 
	C811.096497,525.171082 811.399048,525.377502 811.962219,525.016052 
	C813.242493,523.121582 814.607178,521.867493 816.567444,524.453796 
	C816.567444,524.453796 816.573914,524.552734 816.694153,524.860840 
	C816.694153,524.860840 816.991760,525.005188 817.192383,525.651733 
	C820.105408,529.150879 823.018433,532.650024 826.102173,536.703003 
	C826.647278,537.233459 827.192383,537.763855 827.788269,538.179810 
	C827.788269,538.179810 827.668457,538.216125 827.834167,538.765442 
	C828.323914,539.336304 828.813660,539.907104 829.422913,540.556030 
	C829.422913,540.556030 829.480164,540.686890 829.796509,541.194763 
	C830.703918,542.264648 831.611328,543.334534 832.703003,544.004761 
	C832.703003,544.004761 832.551819,544.417969 832.687622,544.830322 
	C832.829407,545.092712 833.032166,545.293396 833.397705,545.564819 
	C833.397705,545.564819 833.476074,545.712341 833.783264,546.198547 
	C834.421692,546.905884 835.060120,547.613220 835.789307,548.191895 
	C835.789307,548.191895 835.643372,548.250977 835.783264,548.741333 
	C836.017334,548.977661 836.251404,549.213989 836.577209,549.465454 
M732.686584,500.344666 
	C732.686584,500.344666 732.530151,500.152191 732.239929,499.746460 
	C731.849792,499.459412 731.459656,499.172394 731.034241,498.974670 
	C731.034241,498.974670 731.118225,498.928040 730.814087,498.379547 
	C730.222900,498.189789 729.631714,498.000031 728.757935,497.155304 
	C717.262024,491.443420 706.931702,492.485168 697.754028,503.729858 
	C697.754028,500.024109 697.754028,497.610931 697.754028,495.271454 
	C692.459595,495.271454 687.554565,495.271454 682.563965,495.271454 
	C682.563965,515.605225 682.563965,535.643555 682.563965,555.794067 
	C688.069397,555.794067 693.295715,555.794067 698.968445,555.794067 
	C698.968445,544.254700 698.863647,532.986938 698.996826,521.721924 
	C699.140503,509.563629 707.115601,504.710663 718.127869,510.305511 
	C718.127869,510.305511 718.429749,510.449158 718.458923,510.357422 
	C718.458923,510.357422 718.510559,510.438690 718.875244,511.071899 
	C719.877319,514.302734 721.541809,517.492432 721.745300,520.772766 
	C722.186707,527.888977 721.881165,535.051453 721.881104,542.195007 
	C721.881104,546.760925 721.881104,551.326843 721.881104,555.728638 
	C727.649170,555.728638 732.709839,555.728638 737.983032,555.728638 
	C737.983032,541.636169 738.311096,527.854919 737.786438,514.106201 
	C737.625549,509.891479 735.127747,505.765930 733.583862,501.471222 
	C733.583862,501.471222 733.470337,501.340576 733.322632,501.013641 
	C733.189758,500.804779 733.006653,500.659241 732.686584,500.344666 
M1064.352173,498.351379 
	C1064.352173,498.351379 1064.180176,498.515381 1063.795654,498.795044 
	C1063.368286,499.256226 1062.940918,499.717377 1062.307739,500.347870 
	C1062.307739,500.347870 1062.180908,500.582184 1061.790527,500.976654 
	C1061.455078,501.627655 1061.119629,502.278656 1060.186035,502.351410 
	C1060.073608,492.892609 1059.961182,483.433777 1059.935303,473.438873 
	C1059.700317,473.186340 1059.465332,472.933807 1059.144043,472.763062 
	C1059.144043,472.763062 1059.262695,472.770630 1058.678223,472.107086 
	C1053.775024,472.107086 1048.871948,472.107086 1044.013550,472.107086 
	C1044.013550,500.228424 1044.013550,527.925964 1044.013550,556.447083 
	C1049.255859,555.961792 1054.203125,555.503845 1059.873657,554.567566 
	C1059.914429,543.995422 1059.638672,533.407837 1060.156128,522.859070 
	C1060.355957,518.787231 1062.356323,514.803650 1063.681519,510.608887 
	C1063.681519,510.608887 1063.790649,510.413025 1064.065674,510.257874 
	C1064.235352,510.124878 1064.358643,509.957581 1064.619507,509.669159 
	C1064.619507,509.669159 1064.796021,509.567902 1065.439331,509.187897 
	C1069.925049,506.583588 1074.430298,507.194397 1078.967285,509.021057 
	C1078.967285,509.021057 1078.890137,509.063568 1079.157227,509.566803 
	C1079.621704,509.890137 1080.086304,510.213501 1080.668701,510.346161 
	C1080.668701,510.346161 1080.485962,510.476044 1080.857300,511.126343 
	C1081.590820,513.786682 1082.890869,516.433044 1082.957275,519.109924 
	C1083.209229,529.263916 1083.061646,539.427856 1083.063354,549.588074 
	C1083.063721,551.668457 1083.063477,553.748901 1083.063477,555.690674 
	C1088.949097,555.690674 1094.008179,555.690674 1099.017944,555.690674 
	C1099.017944,540.874756 1099.321411,526.389587 1098.814209,511.932739 
	C1098.679810,508.100433 1096.051758,504.355560 1094.468140,500.580261 
	C1094.468140,500.580261 1094.504028,500.485840 1094.209473,499.988525 
	C1093.633545,499.489380 1093.057495,498.990204 1092.314941,498.644379 
	C1092.314941,498.644379 1092.420410,498.444031 1091.963379,497.955688 
	C1083.296631,492.960144 1074.531738,491.970184 1065.469116,497.418060 
	C1065.469116,497.418060 1065.332031,497.533417 1065.007690,497.690765 
	C1064.801880,497.828552 1064.654053,498.012787 1064.352173,498.351379 
M668.310120,504.125671 
	C668.310120,504.125671 668.015015,503.990570 667.816223,503.344055 
	C655.751038,491.089813 636.962891,490.510986 625.429443,502.038300 
	C616.080017,511.382782 614.074768,529.391174 620.920288,542.534241 
	C626.717651,553.664856 639.329529,559.247131 653.268555,556.852173 
	C665.146179,554.811523 672.886230,547.289185 673.465149,536.946350 
	C671.301147,536.946350 669.151184,536.942261 667.001282,536.947144 
	C662.968506,536.956299 659.508972,536.918579 656.001465,540.524414 
	C651.814514,544.828552 645.491882,544.337036 640.081970,541.888916 
	C635.355652,539.750122 633.634094,535.490723 634.086792,529.945923 
	C640.758118,529.945923 647.389587,529.979980 654.020508,529.936401 
	C660.668640,529.892700 667.316162,529.771606 674.672302,529.292297 
	C675.289185,521.691711 674.823303,514.323364 670.062683,507.958344 
	C670.062683,507.958344 670.148987,507.950256 670.033508,507.311676 
	C669.539673,506.406006 669.045837,505.500336 668.463318,504.529602 
	C668.463318,504.529602 668.443420,504.421509 668.310120,504.125671 
M769.020203,508.529419 
	C769.020203,508.529419 769.104492,508.039459 769.025574,508.034363 
	C769.025574,508.034363 769.052917,508.108582 769.695923,507.943573 
	C770.132996,507.882996 770.570068,507.822418 771.906433,507.947052 
	C775.263062,507.901489 778.619690,507.855927 782.839355,507.925293 
	C783.373047,503.748291 783.906738,499.571320 784.507751,494.867645 
	C778.669983,494.867645 773.868530,494.867645 769.044006,494.973755 
	C769.044006,494.973755 769.152344,494.980865 769.044006,494.050446 
	C769.044006,489.446075 769.044006,484.841736 769.044006,480.100952 
	C763.375916,480.100952 758.257751,480.100952 752.825378,480.100952 
	C752.825378,485.021210 752.825378,489.812103 752.825378,494.748230 
	C749.456482,494.939301 746.391907,495.113129 743.183777,495.295105 
	C743.183777,498.608978 742.891907,501.473724 743.311401,504.230133 
	C743.510010,505.535065 745.069092,506.632935 746.832397,507.972076 
	C748.215698,507.908600 749.598999,507.845123 751.505554,507.901733 
	C751.683289,507.881500 751.861084,507.861298 752.243835,508.051636 
	C752.243835,508.051636 752.509155,507.925385 752.766785,508.840363 
	C752.804688,519.305664 752.766113,529.772034 752.911743,540.235901 
	C752.987488,545.679749 755.048950,550.201233 759.985779,552.997681 
	C759.985779,552.997681 759.928955,553.032104 760.157776,553.471680 
	C760.742676,553.731689 761.327637,553.991699 762.463074,554.882385 
	C765.163086,555.592041 767.830872,556.733093 770.568604,556.937378 
	C783.125122,557.874634 785.012695,555.776062 783.663757,542.861572 
	C778.391846,541.536255 771.111511,544.229980 769.065002,535.102539 
	C768.996216,526.401550 768.927429,517.700562 769.020203,508.529419 
M515.910156,540.037354 
	C516.013428,533.735779 516.116638,527.434204 516.069336,521.089783 
	C516.069336,521.089783 516.061646,521.246155 516.870361,521.211609 
	C526.782532,521.211609 536.694702,521.211609 546.753845,521.211609 
	C546.753845,516.257141 546.753845,511.673553 546.753845,506.262238 
	C536.373535,506.262238 526.164734,506.262238 515.945312,505.292023 
	C515.944275,499.022705 515.943176,492.753418 516.875793,486.337677 
	C527.632141,486.337677 538.388428,486.337677 549.242432,486.337677 
	C549.242432,481.239166 549.242432,476.664276 549.242432,471.600647 
	C532.715759,471.600647 516.451660,471.592102 500.187897,471.658630 
	C499.844574,471.660034 499.504791,472.527740 499.022705,473.920349 
	C499.022705,501.163391 499.022705,528.406433 499.022705,555.729614 
	C516.674255,555.729614 533.868591,555.729614 551.081909,555.729614 
	C551.081909,550.934509 551.081909,546.462402 550.868469,541.293396 
	C549.916809,541.265442 548.965088,541.237488 547.216614,541.069763 
	C546.142090,541.118408 545.067505,541.166992 543.070007,541.041260 
	C534.047852,541.016052 525.025696,540.990906 515.910156,540.037354 
M1191.874023,491.100220 
	C1191.582764,487.463196 1191.291504,483.826172 1190.087280,479.984436 
	C1185.108643,480.326843 1180.129883,480.669250 1175.007935,481.858490 
	C1175.069336,483.574951 1175.130859,485.291382 1175.061890,487.826813 
	C1175.103516,489.203461 1175.145142,490.580078 1175.013062,492.821320 
	C1174.232300,493.535797 1173.516724,494.755981 1172.658081,494.866730 
	C1170.403320,495.157471 1168.086304,494.964844 1165.563354,494.964844 
	C1165.563354,499.188934 1164.539551,503.429962 1165.971069,506.541077 
	C1166.752441,508.239105 1171.693237,508.023163 1174.995483,508.720520 
	C1174.995483,518.424805 1174.961426,528.234863 1175.004517,538.044678 
	C1175.053589,549.244873 1181.999146,556.518250 1193.067871,557.052185 
	C1205.514648,557.652466 1206.888672,556.268921 1206.080322,543.913574 
	C1206.060669,543.613525 1205.828613,543.327271 1205.668823,542.975403 
	C1202.898315,542.690430 1199.904053,542.918335 1197.364014,541.951904 
	C1195.323120,541.175354 1192.412842,539.022095 1192.331299,537.359924 
	C1191.854736,527.641052 1192.097534,517.886902 1192.097534,507.777832 
	C1197.035645,507.777832 1201.465332,507.777832 1206.160156,507.777832 
	C1206.160156,504.758759 1205.985718,502.102539 1206.202515,499.478607 
	C1206.499634,495.882996 1204.895264,494.729858 1201.510864,494.935181 
	C1198.357300,495.126495 1195.183350,494.979645 1191.832397,494.248993 
	C1191.778931,493.497345 1191.725586,492.745728 1191.874023,491.100220 
M1324.074829,499.908386 
	C1324.074829,499.908386 1324.181030,499.878906 1323.885010,499.248077 
	C1314.882568,492.138092 1302.482056,491.973785 1294.917480,498.898468 
	C1294.917480,498.898468 1294.912598,498.777344 1294.359375,498.978668 
	C1294.134644,499.291870 1293.909912,499.605072 1293.272339,500.020294 
	C1293.020630,500.205170 1292.906128,500.453308 1292.378296,501.051575 
	C1291.941040,501.746979 1291.503662,502.442413 1290.532227,503.185608 
	C1290.365112,503.122131 1290.197876,503.058624 1290.061890,502.078430 
	C1290.061890,500.148102 1290.061890,498.217804 1290.061890,495.782623 
	C1284.715088,495.782623 1279.746704,495.782623 1274.804443,495.782623 
	C1274.804443,515.720215 1274.804443,535.660156 1274.804443,555.711914 
	C1280.212036,555.711914 1285.420654,555.711914 1290.963257,555.711914 
	C1290.963257,544.270081 1290.560181,533.120972 1291.171631,522.027710 
	C1291.400391,517.876770 1293.991821,513.856079 1295.626465,509.649353 
	C1295.626465,509.649353 1295.779297,509.564545 1296.413940,509.182434 
	C1300.572388,509.185394 1304.730957,509.188385 1308.910278,509.099579 
	C1308.910278,509.099579 1308.818604,509.120850 1309.184692,509.733887 
	C1313.242065,512.533386 1313.795288,516.745544 1313.795654,521.178772 
	C1313.796753,532.730042 1313.796143,544.281311 1313.796143,555.705688 
	C1319.464844,555.705688 1324.533325,555.705688 1329.823730,555.705688 
	C1329.823730,541.458618 1330.189331,527.519348 1329.606567,513.619812 
	C1329.425781,509.309357 1326.670044,505.106873 1325.068481,500.939697 
	C1325.068481,500.939697 1325.156616,500.935974 1324.983765,500.406708 
	C1324.683350,500.203949 1324.382812,500.001190 1324.074829,499.908386 
M910.026245,504.342102 
	C909.709473,503.884247 909.392639,503.426392 908.833618,502.331512 
	C896.249634,490.563263 876.546387,491.066467 866.121033,503.422394 
	C858.025024,513.017578 856.641602,530.547485 863.033569,542.542114 
	C868.850464,553.457642 880.170105,558.649536 894.448425,556.950867 
	C906.101440,555.564514 914.402161,547.790649 915.449280,536.957947 
	C911.276611,536.957947 907.128479,536.835815 902.996582,537.041077 
	C901.921448,537.094482 900.665161,537.958496 899.888977,538.811401 
	C896.168335,542.899536 889.033630,544.647888 883.416199,542.674622 
	C878.420898,540.919922 876.058777,536.859009 876.523621,529.846619 
	C876.693665,529.799988 876.863770,529.753357 877.944885,529.922546 
	C884.617065,529.865540 891.289185,529.808533 898.890747,529.910034 
	C904.661316,529.910034 910.431824,529.910034 916.869507,529.910034 
	C916.242981,520.715210 916.889832,511.862549 910.071228,504.945282 
	C910.071228,504.945282 910.158386,504.925690 910.026245,504.342102 
M244.370316,610.686218 
	C244.370316,610.686218 244.556732,610.803345 244.995483,611.272156 
	C249.804794,612.825867 254.606506,615.703369 259.424561,615.731079 
	C315.647705,616.053955 371.873657,616.030762 428.097595,615.794067 
	C432.483154,615.775574 436.859039,613.470459 441.154297,612.150696 
	C441.154297,612.150696 441.130127,612.263184 441.805450,612.089905 
	C448.344116,607.815918 452.307312,601.962952 453.043121,593.509460 
	C452.998322,593.333008 452.953552,593.156494 453.072845,592.057495 
	C453.073364,543.477234 453.090210,494.896912 453.026245,446.316711 
	C453.023041,443.881226 452.319641,441.446625 452.005432,438.278717 
	C447.286835,426.663849 439.102875,421.098053 426.667725,421.064056 
	C421.571686,421.050140 416.475616,421.061768 411.332031,421.061768 
	C410.890900,415.334869 410.545197,410.206848 410.088287,405.088745 
	C409.594269,399.554260 405.278595,395.803772 399.646027,395.894958 
	C394.110901,395.984558 390.412781,399.524872 389.920013,405.121887 
	C389.457336,410.377655 388.927460,415.627533 388.433716,420.811035 
	C359.048676,420.811035 330.131378,420.811035 301.011322,420.811035 
	C300.658661,416.264282 300.219177,411.976379 300.016388,407.677277 
	C299.665771,400.244659 296.166840,396.078064 289.919830,395.899170 
	C283.357300,395.711304 279.686493,399.633026 279.173553,407.468628 
	C278.883118,411.904968 278.684418,416.347351 278.429291,421.066376 
	C271.381744,421.066376 264.901215,420.942535 258.427002,421.093201 
	C246.449814,421.371887 237.481232,429.135559 234.917984,441.942169 
	C234.845795,443.435364 234.710678,444.928528 234.710541,446.421722 
	C234.706223,494.282623 234.710938,542.143555 234.738586,590.004456 
	C234.739532,591.655640 234.988907,593.306641 235.010117,595.722229 
	C236.922089,599.514221 238.834061,603.306213 240.958786,607.639526 
	C241.272491,607.855957 241.586182,608.072449 242.003876,608.699219 
	C242.161331,608.966797 242.395187,609.105896 242.918396,609.606750 
	C243.345840,609.919800 243.773285,610.232788 244.370316,610.686218 
M943.771301,556.955261 
	C944.850830,556.935974 945.930298,556.916687 947.829712,557.050964 
	C949.214539,556.998840 950.599365,556.946716 952.817261,557.016479 
	C956.761780,555.887268 960.979309,555.307739 964.593262,553.512939 
	C971.830811,549.918762 975.189636,543.473450 974.701599,535.526062 
	C974.200317,527.360901 968.875793,522.849182 961.471252,520.516174 
	C959.268127,519.821960 956.983582,519.351013 954.708496,518.927734 
	C950.471558,518.139343 946.131531,517.753357 942.007690,516.587219 
	C940.445801,516.145569 938.522217,514.132324 938.301819,512.612427 
	C938.088867,511.143372 939.452515,508.781769 940.825928,507.867920 
	C945.410645,504.817535 952.409851,507.095215 955.101990,511.995819 
	C955.565857,512.840149 956.664551,513.852417 957.506287,513.886353 
	C962.091248,514.071350 966.687500,513.974304 971.384033,513.974304 
	C971.681152,506.490753 968.525513,501.553619 962.976929,498.057434 
	C955.837646,493.558899 947.945984,492.950409 939.940491,494.642761 
	C928.840149,496.989380 922.888672,503.591431 922.847534,512.924133 
	C922.807617,521.970947 928.078247,527.306641 939.739868,529.919617 
	C944.420227,530.968262 949.127625,531.896484 953.825256,532.867249 
	C957.176331,533.559692 959.142456,535.413086 958.717163,539.670471 
	C954.294983,544.813721 947.111877,545.217407 939.012817,540.366089 
	C938.911011,540.070984 938.704651,539.909302 938.150269,539.054077 
	C937.418335,538.333618 936.711487,537.022095 935.950317,536.989807 
	C931.357849,536.794861 926.752991,536.892822 921.840149,536.892822 
	C922.097778,538.932922 922.111572,540.276855 922.450684,541.532959 
	C925.276917,552.002441 933.397522,555.373230 943.771301,556.955261 
M1036.123901,528.112549 
	C1035.707275,523.750549 1035.290649,519.388550 1034.934937,514.285400 
	C1029.566895,499.521118 1019.502869,492.903259 1004.073792,493.991791 
	C991.765137,494.860168 982.124146,503.688385 979.462769,517.026062 
	C978.725098,520.723083 978.802856,524.647339 978.966553,528.447571 
	C979.459412,539.886597 983.989197,549.245483 994.768982,554.111267 
	C1005.920105,559.144775 1017.119141,558.630127 1027.386963,551.429565 
	C1032.145386,548.092529 1034.918701,543.374756 1035.145874,536.965088 
	C1030.693604,536.965088 1026.708130,536.812378 1022.747192,537.057312 
	C1021.545715,537.131653 1020.158936,538.072266 1019.292114,539.015747 
	C1015.800720,542.815918 1008.584961,544.565491 1003.185974,542.708252 
	C998.172729,540.983582 995.604187,536.778503 995.553833,529.932800 
	C1007.518494,529.932800 1019.483521,529.964661 1031.447998,529.892395 
	C1032.939941,529.883423 1034.428345,529.323242 1036.123901,528.112549 
M1146.081177,554.881348 
	C1151.068604,555.406311 1156.056152,555.931274 1161.121216,556.464417 
	C1161.121216,542.263733 1161.453735,529.134766 1160.922852,516.040771 
	C1160.759277,512.004944 1158.239746,508.064636 1156.639893,503.432648 
	C1148.499634,494.006866 1133.728394,491.007721 1121.531738,496.304321 
	C1113.128906,499.953369 1108.530029,506.724915 1109.408325,514.334900 
	C1110.183716,514.432373 1110.994629,514.615784 1111.806763,514.622437 
	C1115.617065,514.653687 1119.427612,514.636292 1123.165039,514.636292 
	C1126.360474,507.317627 1130.178955,505.380951 1137.745850,507.113831 
	C1142.606201,508.226837 1145.062256,512.044189 1144.686035,518.335266 
	C1142.586426,518.335266 1140.418579,518.072632 1138.335815,518.382874 
	C1131.168579,519.450623 1123.739014,519.852112 1116.958618,522.136963 
	C1109.074951,524.793457 1105.202515,532.770142 1106.029541,540.942688 
	C1106.771118,548.270874 1111.895874,553.954956 1119.939209,556.005310 
	C1129.687134,558.490417 1138.566040,557.124878 1145.812500,548.939209 
	C1145.961548,551.043152 1146.066895,552.531128 1146.081177,554.881348 
M1228.130127,510.389923 
	C1232.142334,505.710663 1237.312988,506.221222 1242.355469,507.664307 
	C1247.268311,509.070251 1248.416138,513.252563 1248.577515,518.373596 
	C1246.163574,518.373596 1243.836914,518.130676 1241.578003,518.419006 
	C1234.704102,519.296204 1227.609863,519.575623 1221.061035,521.585571 
	C1213.028442,524.050903 1208.417847,532.125061 1209.070923,539.773010 
	C1209.783081,548.110229 1214.843994,553.919128 1223.488647,556.064453 
	C1233.129517,558.456726 1241.839233,556.983887 1249.295898,548.579407 
	C1249.295898,551.581238 1249.295898,553.666931 1249.295898,555.741455 
	C1254.681885,555.741455 1259.733887,555.741455 1264.995483,555.741455 
	C1264.995483,543.118103 1265.244019,530.813599 1264.922974,518.523926 
	C1264.625122,507.118530 1258.240723,498.622925 1248.386230,495.433777 
	C1236.243530,491.504089 1222.912354,494.613251 1215.420776,503.383423 
	C1214.322876,506.258362 1213.224854,509.133270 1211.994995,512.491089 
	C1212.024536,512.655273 1212.054077,512.819519 1212.088013,513.793457 
	C1215.632568,514.102539 1219.196045,514.274292 1222.715820,514.762085 
	C1225.800537,515.189514 1227.415527,514.072754 1228.130127,510.389923 
M597.772888,548.293945 
	C604.171387,530.679810 610.569824,513.065674 617.090820,495.114258 
	C611.045593,495.114258 605.743347,495.114258 600.172180,495.114258 
	C595.667297,509.350861 591.176758,523.542358 586.409851,538.607178 
	C585.737732,536.750427 585.370911,535.841187 585.076904,534.908936 
	C581.295044,522.917114 577.580505,510.903442 573.676758,498.951538 
	C573.192017,497.467682 571.797852,495.262512 570.685974,495.175842 
	C565.515320,494.772614 560.295715,494.997345 554.425781,494.997345 
	C560.401672,511.069336 566.007019,526.259277 571.708679,541.413086 
	C573.548584,546.303223 574.368958,553.051514 577.970032,555.397827 
	C581.718018,557.839783 588.262756,555.992981 593.584595,556.006592 
	C593.908264,556.007446 594.232300,555.878052 594.873291,555.741882 
	C595.669922,553.594971 596.526245,551.287048 597.772888,548.293945 
z"/>
<path fill="#074F9D" opacity="1.000000" stroke="none" 
	d="
M235.154648,441.034393 
	C237.481232,429.135559 246.449814,421.371887 258.427002,421.093201 
	C264.901215,420.942535 271.381744,421.066376 278.429291,421.066376 
	C278.684418,416.347351 278.883118,411.904968 279.173553,407.468628 
	C279.686493,399.633026 283.357300,395.711304 289.919830,395.899170 
	C296.166840,396.078064 299.665771,400.244659 300.016388,407.677277 
	C300.219177,411.976379 300.658661,416.264282 301.011322,420.811035 
	C330.131378,420.811035 359.048676,420.811035 388.433716,420.811035 
	C388.927460,415.627533 389.457336,410.377655 389.920013,405.121887 
	C390.412781,399.524872 394.110901,395.984558 399.646027,395.894958 
	C405.278595,395.803772 409.594269,399.554260 410.088287,405.088745 
	C410.545197,410.206848 410.890900,415.334869 411.332031,421.061768 
	C416.475616,421.061768 421.571686,421.050140 426.667725,421.064056 
	C439.102875,421.098053 447.286835,426.663849 451.692505,438.913391 
	C451.585815,443.314697 451.968018,447.081207 451.971466,450.848053 
	C452.013000,496.317352 451.987518,541.786682 452.037170,587.255981 
	C452.039246,589.164368 452.605438,591.072021 452.908813,592.980042 
	C452.953552,593.156494 452.998322,593.333008 452.697662,593.990479 
	C448.611511,600.401978 444.870789,606.332581 441.130127,612.263184 
	C441.130127,612.263184 441.154297,612.150696 440.777710,612.126465 
	C433.331299,612.736450 426.263672,613.889893 419.191345,613.919434 
	C377.558533,614.093079 335.921814,614.284912 294.292480,613.866577 
	C277.702087,613.699829 260.826782,616.656128 244.556732,610.803345 
	C244.556732,610.803345 244.370316,610.686218 244.396454,610.291870 
	C243.850220,609.637146 243.277847,609.376831 242.705475,609.116455 
	C242.395187,609.105896 242.161331,608.966797 241.859558,608.212280 
	C241.392181,607.516235 241.069107,607.307251 240.746033,607.098206 
	C238.834061,603.306213 236.922089,599.514221 235.340820,595.032959 
	C235.783813,593.527893 235.994141,592.712158 235.994400,591.896362 
	C236.010437,542.858398 236.015488,493.820404 235.973755,444.782440 
	C235.972702,443.532867 235.439621,442.283722 235.154648,441.034393 
M320.679932,517.620605 
	C320.679932,517.620605 320.603394,517.783264 319.939209,517.506592 
	C319.520660,518.495483 319.102081,519.484314 318.584503,520.545898 
	C318.584503,520.545898 318.597321,520.668030 317.885773,520.483276 
	C317.349609,521.754028 316.813446,523.024841 316.245758,524.157593 
	C316.245758,524.157593 316.375977,524.213135 315.621307,524.322388 
	C315.170166,525.641235 314.719025,526.960022 314.234619,528.134460 
	C314.234619,528.134460 314.375000,528.181885 313.706482,528.371765 
	C313.555481,529.007629 313.404480,529.643494 313.220734,530.146484 
	C313.220734,530.146484 313.349060,530.194031 312.617065,530.304932 
	C311.784119,532.260498 310.951172,534.216064 310.088593,536.074097 
	C310.088593,536.074097 310.190399,536.080505 309.655273,536.266113 
	C309.470123,536.583252 309.285004,536.900391 309.087738,537.107971 
	C309.087738,537.107971 309.193420,537.139282 308.322052,537.053833 
	C298.743286,537.365173 289.162384,537.625366 279.587677,538.032043 
	C277.725922,538.111084 275.888397,538.760620 274.064606,539.047913 
	C274.064606,539.047913 274.155945,539.093567 273.491852,539.143799 
	C273.831451,540.060425 274.171082,540.977051 274.862000,542.086487 
	C275.036896,542.312256 275.098694,542.565552 275.042480,543.636292 
	C275.838440,544.443787 276.634399,545.251221 277.962006,546.364685 
	C281.941071,550.128052 285.569122,554.373840 289.961365,557.569275 
	C306.761292,569.791382 323.779266,581.715576 340.826538,593.591919 
	C341.903992,594.342529 344.375427,594.396118 345.440125,593.666931 
	C363.401764,581.366272 381.496033,569.230896 398.973511,556.267090 
	C405.084045,551.734619 409.609711,545.065613 414.468323,538.630005 
	C414.021576,538.442017 413.575500,538.091248 413.128052,538.089539 
	C399.748993,538.037598 386.369812,538.013672 372.990723,538.042175 
	C372.705231,538.042786 372.421173,538.709656 371.749207,539.657776 
	C368.276581,547.359253 364.704498,555.018066 361.369781,562.778809 
	C359.461914,567.218933 356.814911,570.883606 351.651947,570.757629 
	C346.323273,570.627563 343.700104,566.855530 341.940338,562.106689 
	C336.523956,547.490295 330.930725,532.939026 325.304779,518.401733 
	C324.813232,517.131531 323.578339,516.148926 322.042328,515.127625 
	C321.626678,515.912720 321.211029,516.697754 320.679932,517.620605 
M265.856995,524.485657 
	C276.631866,524.627930 287.406647,524.793884 298.181976,524.848083 
	C298.765717,524.851013 299.354156,523.919434 300.154266,522.823669 
	C304.931030,515.248779 309.629486,507.622803 314.517365,500.120300 
	C316.991882,496.322083 320.524536,493.594482 325.251678,494.127136 
	C329.996948,494.661865 333.406036,497.597382 335.380310,502.010284 
	C335.987549,503.367554 336.452942,504.788513 336.978485,506.182129 
	C341.844269,519.085388 346.709045,531.989136 352.108704,546.310730 
	C355.730133,538.115112 358.681122,531.165283 361.859619,524.321167 
	C364.921112,517.728943 370.854126,516.224792 375.939880,520.596375 
	C377.063507,521.562195 378.034149,522.705933 379.533752,524.472961 
	C393.276855,524.632935 407.019867,524.818420 420.763397,524.880737 
	C421.482422,524.883972 422.206177,523.839600 422.913605,522.538818 
	C423.102356,521.561462 423.279938,520.581848 423.481506,519.607117 
	C427.507996,500.133545 422.555054,483.377655 406.885254,470.984314 
	C391.519226,458.831299 374.319183,457.803070 356.775818,466.283997 
	C352.061646,468.562897 347.928406,472.043549 343.426208,475.040619 
	C341.887115,473.817444 340.370361,472.519958 338.761963,471.348297 
	C325.624329,461.777710 311.198212,458.191895 295.442627,463.110565 
	C266.470184,472.155426 257.582397,503.130768 265.856995,524.485657 
M341.500000,422.991364 
	C356.560791,422.991364 371.621613,422.991364 386.682404,422.991364 
	C386.679077,422.764709 386.675751,422.538055 386.672394,422.311401 
	C358.489319,422.311401 330.306274,422.311401 302.123199,422.311401 
	C302.122498,422.538116 302.121796,422.764832 302.121063,422.991547 
	C314.914062,422.991547 327.707031,422.991547 341.500000,422.991364 
z"/>
<path fill="#094F9C" opacity="1.000000" stroke="none" 
	d="
M808.845886,508.351440 
	C817.935730,497.556305 827.164185,486.873108 836.031616,475.898193 
	C838.710022,472.583191 841.466187,471.016968 845.709045,471.364166 
	C849.642578,471.686066 853.623169,471.432831 858.844116,471.432831 
	C857.590820,473.659515 856.959534,475.412079 855.815613,476.714294 
	C845.852478,488.056030 835.797607,499.317139 825.582458,510.813141 
	C829.132324,515.146057 832.484375,519.237549 835.744873,523.814941 
	C836.251099,524.730591 836.849060,525.160278 837.446960,525.589966 
	C837.292786,525.659546 837.138672,525.729126 837.100525,526.067383 
	C838.314453,527.299194 839.412537,528.262390 840.510559,529.225525 
	C840.510559,529.225525 840.640808,529.375183 840.555420,529.770630 
	C841.130798,530.645142 841.791504,531.124207 842.452271,531.603271 
	C842.300720,531.723938 842.149109,531.844666 842.110596,532.147827 
	C843.195923,533.190430 844.168091,534.050659 845.140320,534.910828 
	C845.140320,534.910828 845.043274,534.953674 845.066101,535.265991 
	C845.891479,536.223083 846.694031,536.867859 847.496582,537.512695 
	C847.496582,537.512695 847.145264,537.550537 847.251526,537.882751 
	C848.011108,538.742493 848.664368,539.270020 849.317627,539.797546 
	C849.317627,539.797546 849.193970,539.831238 849.177795,540.128052 
	C849.822754,540.919189 850.483887,541.413513 851.145020,541.907898 
	C851.145020,541.907898 851.046570,541.952148 851.067749,542.265625 
	C851.896667,543.181519 852.704407,543.783875 853.512085,544.386292 
	C853.512085,544.386292 853.491455,544.493408 853.448181,544.852478 
	C855.432556,547.179016 857.460144,549.146484 859.487793,551.113953 
	C859.487793,551.113953 859.795288,551.327026 859.669006,551.698730 
	C859.790649,552.068054 860.038635,552.065674 860.286560,552.063354 
	C860.286560,552.063354 860.693054,552.189941 860.498535,552.745728 
	C853.395325,556.511353 846.484558,555.468384 839.573181,553.312256 
	C839.573181,553.312256 839.833374,553.170837 839.818970,552.896179 
	C839.029724,552.016052 838.254822,551.410583 837.479858,550.805176 
	C837.479858,550.805176 837.310242,550.623901 837.403564,550.248840 
	C837.175415,549.764832 836.853943,549.655884 836.532532,549.546936 
	C836.532532,549.546936 836.577209,549.465454 836.591187,549.155762 
	C836.284546,548.647766 835.963928,548.449402 835.643372,548.250977 
	C835.643372,548.250977 835.789307,548.191895 835.814209,547.884766 
	C835.051392,546.955872 834.263733,546.334106 833.476074,545.712341 
	C833.476074,545.712341 833.397705,545.564819 833.465210,545.216797 
	C833.205811,544.718445 832.878784,544.568237 832.551819,544.417969 
	C832.551819,544.417969 832.703003,544.004761 832.737305,543.841797 
	C831.674500,542.681519 830.577332,541.684204 829.480164,540.686890 
	C829.480164,540.686890 829.422913,540.556030 829.495667,540.194214 
	C828.935120,539.293579 828.301758,538.754883 827.668457,538.216125 
	C827.668457,538.216125 827.788269,538.179810 827.824280,537.923462 
	C827.217285,537.161194 826.574341,536.655212 825.931396,536.149231 
	C823.018433,532.650024 820.105408,529.150879 817.253174,525.208313 
	C817.067261,524.694214 816.820618,524.623474 816.573914,524.552734 
	C816.573914,524.552734 816.567444,524.453796 816.657166,524.080566 
	C815.994324,522.921997 815.241821,522.136658 814.489258,521.351318 
	C813.459229,522.693420 812.429138,524.035461 811.399048,525.377502 
	C811.399048,525.377502 811.096497,525.171082 810.906250,525.248352 
	C810.328979,526.044678 809.941956,526.763733 809.554932,527.482849 
	C809.554993,527.482849 809.590210,527.346375 809.127441,527.387329 
	C808.106506,529.025696 807.135559,530.605652 807.067139,532.223816 
	C806.856201,537.213074 807.026917,542.217285 806.981262,547.215027 
	C806.902100,555.877991 808.097656,554.640869 799.319702,555.096924 
	C794.624634,555.340820 793.881226,553.502686 793.913818,549.348083 
	C794.093811,526.357910 793.976135,503.365631 794.012756,480.374146 
	C794.025818,472.189362 792.983887,473.085876 801.587280,473.010986 
	C801.753906,473.009552 801.924561,473.034912 802.086487,473.007446 
	C806.170471,472.315369 807.170715,474.226410 807.067383,478.060150 
	C806.825073,487.050323 806.926208,496.052490 807.072327,505.046814 
	C807.090332,506.157684 808.227417,507.250366 808.845886,508.351440 
z"/>
<path fill="#084D9B" opacity="1.000000" stroke="none" 
	d="
M1212.083740,512.983826 
	C1212.054077,512.819519 1212.024536,512.655273 1212.404541,512.171936 
	C1213.872070,508.898529 1214.929932,505.944275 1215.987793,502.989990 
	C1222.912354,494.613251 1236.243530,491.504089 1248.386230,495.433777 
	C1258.240723,498.622925 1264.625122,507.118530 1264.922974,518.523926 
	C1265.244019,530.813599 1264.995483,543.118103 1264.995483,555.741455 
	C1259.733887,555.741455 1254.681885,555.741455 1249.295898,555.741455 
	C1249.295898,553.666931 1249.295898,551.581238 1249.295898,548.579407 
	C1241.839233,556.983887 1233.129517,558.456726 1223.488647,556.064453 
	C1214.843994,553.919128 1209.783081,548.110229 1209.070923,539.773010 
	C1208.417847,532.125061 1213.028442,524.050903 1221.061035,521.585571 
	C1227.609863,519.575623 1234.704102,519.296204 1241.578003,518.419006 
	C1243.836914,518.130676 1246.163574,518.373596 1248.577515,518.373596 
	C1248.416138,513.252563 1247.268311,509.070251 1242.355469,507.664307 
	C1237.312988,506.221222 1232.142334,505.710663 1227.560181,510.787292 
	C1222.021362,511.784393 1217.052612,512.384094 1212.083740,512.983826 
M1225.374634,538.310791 
	C1226.444214,539.891418 1227.164551,542.226868 1228.647949,542.913635 
	C1233.410400,545.118469 1238.416138,544.833618 1242.963501,542.105286 
	C1247.298584,539.504211 1249.135620,535.448669 1248.844849,530.155701 
	C1244.193359,530.155701 1239.671265,529.730408 1235.269165,530.275330 
	C1230.872681,530.819458 1226.129028,531.710815 1225.374634,538.310791 
z"/>
<path fill="#094D9B" opacity="1.000000" stroke="none" 
	d="
M1146.172241,554.019043 
	C1146.066895,552.531128 1145.961548,551.043152 1145.812500,548.939209 
	C1138.566040,557.124878 1129.687134,558.490417 1119.939209,556.005310 
	C1111.895874,553.954956 1106.771118,548.270874 1106.029541,540.942688 
	C1105.202515,532.770142 1109.074951,524.793457 1116.958618,522.136963 
	C1123.739014,519.852112 1131.168579,519.450623 1138.335815,518.382874 
	C1140.418579,518.072632 1142.586426,518.335266 1144.686035,518.335266 
	C1145.062256,512.044189 1142.606201,508.226837 1137.745850,507.113831 
	C1130.178955,505.380951 1126.360474,507.317627 1123.165039,514.636292 
	C1119.427612,514.636292 1115.617065,514.653687 1111.806763,514.622437 
	C1110.994629,514.615784 1110.183716,514.432373 1109.408325,514.334900 
	C1108.530029,506.724915 1113.128906,499.953369 1121.531738,496.304321 
	C1133.728394,491.007721 1148.499634,494.006866 1156.499756,503.983521 
	C1159.285400,510.759094 1160.327271,517.283752 1160.061035,524.163818 
	C1159.785034,531.295776 1159.995972,538.446655 1159.995239,545.589233 
	C1159.994263,555.685730 1158.251099,556.993958 1148.091431,554.516296 
	C1147.449463,554.359680 1146.811890,554.185181 1146.172241,554.019043 
M1141.198975,529.996582 
	C1136.156372,530.672058 1130.963623,530.845642 1126.149048,532.284180 
	C1124.363770,532.817566 1122.432861,536.341919 1122.479004,538.460693 
	C1122.517944,540.256042 1125.037598,543.103577 1126.930176,543.568176 
	C1137.192017,546.087280 1145.884277,541.035339 1145.438110,530.301331 
	C1144.345215,530.202698 1143.220093,530.101135 1141.198975,529.996582 
z"/>
<path fill="#094D9B" opacity="1.000000" stroke="none" 
	d="
M1035.918457,529.018433 
	C1034.428345,529.323242 1032.939941,529.883423 1031.447998,529.892395 
	C1019.483521,529.964661 1007.518494,529.932800 995.553833,529.932800 
	C995.604187,536.778503 998.172729,540.983582 1003.185974,542.708252 
	C1008.584961,544.565491 1015.800720,542.815918 1019.292114,539.015747 
	C1020.158936,538.072266 1021.545715,537.131653 1022.747192,537.057312 
	C1026.708130,536.812378 1030.693604,536.965088 1035.145874,536.965088 
	C1034.918701,543.374756 1032.145386,548.092529 1027.386963,551.429565 
	C1017.119141,558.630127 1005.920105,559.144775 994.768982,554.111267 
	C983.989197,549.245483 979.459412,539.886597 978.966553,528.447571 
	C978.802856,524.647339 978.725098,520.723083 979.462769,517.026062 
	C982.124146,503.688385 991.765137,494.860168 1004.073792,493.991791 
	C1019.502869,492.903259 1029.566895,499.521118 1034.636963,514.932739 
	C1034.537231,519.571411 1034.735474,523.562683 1034.959717,528.076416 
	C1021.773010,528.076416 1009.437256,528.076416 997.101562,528.076416 
	C997.104126,528.390442 997.106628,528.704407 997.109192,529.018433 
	C1010.045593,529.018433 1022.982056,529.018433 1035.918457,529.018433 
M1016.763977,510.863068 
	C1012.366089,506.405273 1007.119934,505.889862 1001.755249,508.361572 
	C998.027222,510.079163 995.720703,513.240723 996.092163,517.764038 
	C1003.839417,517.764038 1011.368958,517.764038 1019.706604,517.764038 
	C1018.724426,515.357422 1017.945129,513.447998 1016.763977,510.863068 
z"/>
<path fill="#094D9B" opacity="1.000000" stroke="none" 
	d="
M673.963989,529.684448 
	C667.316162,529.771606 660.668640,529.892700 654.020508,529.936401 
	C647.389587,529.979980 640.758118,529.945923 634.086792,529.945923 
	C633.634094,535.490723 635.355652,539.750122 640.081970,541.888916 
	C645.491882,544.337036 651.814514,544.828552 656.001465,540.524414 
	C659.508972,536.918579 662.968506,536.956299 667.001282,536.947144 
	C669.151184,536.942261 671.301147,536.946350 673.465149,536.946350 
	C672.886230,547.289185 665.146179,554.811523 653.268555,556.852173 
	C639.329529,559.247131 626.717651,553.664856 620.920288,542.534241 
	C614.074768,529.391174 616.080017,511.382782 625.429443,502.038300 
	C636.962891,490.510986 655.751038,491.089813 667.752075,503.790527 
	C667.939819,504.298492 668.191589,504.360016 668.443420,504.421509 
	C668.443420,504.421509 668.463318,504.529602 668.355042,504.902161 
	C668.880798,506.166565 669.514893,507.058411 670.148987,507.950256 
	C670.148987,507.950256 670.062683,507.958344 670.048706,508.314972 
	C671.022949,513.655334 672.072266,518.627991 672.978882,523.626587 
	C673.629578,527.214294 671.814270,528.198486 668.441528,528.057190 
	C663.130615,527.834778 657.803467,527.999512 652.483215,527.999878 
	C646.744812,528.000244 641.006409,528.000000 635.268005,528.000000 
	C643.415527,528.982910 651.539307,528.902100 659.660522,529.013611 
	C664.430542,529.079163 669.196289,529.450562 673.963989,529.684448 
M646.494385,518.000916 
	C650.262146,518.000916 654.029907,518.000916 657.839783,518.000916 
	C657.009827,510.460480 652.978210,506.900177 645.909302,507.026337 
	C639.018555,507.149292 634.855835,511.101990 634.557068,518.000732 
	C638.213684,518.000732 641.863159,518.000732 646.494385,518.000916 
z"/>
<path fill="#094D9B" opacity="1.000000" stroke="none" 
	d="
M876.000549,529.925842 
	C876.058777,536.859009 878.420898,540.919922 883.416199,542.674622 
	C889.033630,544.647888 896.168335,542.899536 899.888977,538.811401 
	C900.665161,537.958496 901.921448,537.094482 902.996582,537.041077 
	C907.128479,536.835815 911.276611,536.957947 915.449280,536.957947 
	C914.402161,547.790649 906.101440,555.564514 894.448425,556.950867 
	C880.170105,558.649536 868.850464,553.457642 863.033569,542.542114 
	C856.641602,530.547485 858.025024,513.017578 866.121033,503.422394 
	C876.546387,491.066467 896.249634,490.563263 908.749878,502.798279 
	C909.163513,503.818604 909.660950,504.372162 910.158386,504.925690 
	C910.158386,504.925690 910.071228,504.945282 910.082520,505.277649 
	C911.726562,511.295776 913.542236,516.937378 914.928406,522.682617 
	C915.873169,526.598450 914.211487,528.235046 909.880371,528.096619 
	C900.070923,527.782959 890.243225,527.917480 880.426514,528.083984 
	C878.941162,528.109131 877.475403,529.283203 876.000549,529.925842 
M895.291016,509.010803 
	C885.528564,504.473816 878.182190,507.779480 876.264465,517.786377 
	C884.015808,517.786377 891.725708,517.786377 900.598022,517.786377 
	C898.846191,514.670715 897.381165,512.065063 895.291016,509.010803 
z"/>
<path fill="#074F9D" opacity="1.000000" stroke="none" 
	d="
M515.942139,486.484131 
	C515.943176,492.753418 515.944275,499.022705 516.092651,506.143372 
	C517.768799,507.334045 519.293335,507.941895 520.827209,507.966339 
	C527.625000,508.074707 534.427063,508.103027 541.224121,507.974396 
	C543.959656,507.922638 545.270264,508.796783 545.018250,511.661469 
	C544.887939,513.142456 544.870178,514.657959 545.025208,516.134399 
	C545.357605,519.299011 543.836365,520.096741 540.932678,520.034058 
	C534.136414,519.887390 527.333374,519.916260 520.536377,520.047974 
	C519.037659,520.077026 517.552856,520.827698 516.061646,521.246094 
	C516.061646,521.246155 516.069336,521.089783 515.727661,521.146851 
	C515.140320,527.960266 514.884949,534.716248 514.706299,541.474304 
	C514.702026,541.636536 515.552917,541.821411 516.295288,542.296265 
	C525.874695,542.730469 535.168945,543.101013 544.450256,542.892639 
	C548.755066,542.796021 550.254883,543.861633 550.145996,548.394836 
	C550.046509,552.537659 549.320923,554.244873 544.669189,554.123962 
	C531.875305,553.791443 519.064270,553.857727 506.266205,554.097229 
	C502.182373,554.173645 500.868042,553.061523 500.901031,548.839600 
	C501.098450,523.568604 501.015350,498.295471 501.492279,473.016052 
	C515.771790,473.008514 529.586182,472.935364 543.397522,473.109955 
	C544.926758,473.129272 547.538879,474.341766 547.748474,475.383301 
	C548.344727,478.345947 547.957764,481.506500 547.957764,484.997162 
	C538.359680,484.997162 529.562378,484.923218 520.768555,485.064301 
	C519.152527,485.090210 517.550598,485.988464 515.942139,486.484131 
z"/>
<path fill="#074E9B" opacity="1.000000" stroke="none" 
	d="
M1059.848633,473.974976 
	C1059.961182,483.433777 1060.073608,492.892609 1060.863037,502.612854 
	C1061.753662,502.110291 1061.967285,501.346252 1062.180908,500.582214 
	C1062.180908,500.582184 1062.307739,500.347870 1062.763428,500.468964 
	C1063.539551,499.898499 1063.859863,499.206940 1064.180176,498.515381 
	C1064.180176,498.515381 1064.352173,498.351379 1064.734375,498.441650 
	C1065.188354,498.199097 1065.260132,497.866241 1065.332031,497.533417 
	C1065.332031,497.533417 1065.469116,497.418060 1065.909668,497.555847 
	C1071.780884,497.136627 1077.210815,496.181580 1082.642334,496.171936 
	C1085.900269,496.166168 1089.161011,497.636902 1092.420410,498.444031 
	C1092.420410,498.444031 1092.314941,498.644379 1092.335449,498.928101 
	C1093.072021,499.636475 1093.787964,500.061157 1094.504028,500.485840 
	C1094.504028,500.485840 1094.468140,500.580261 1094.362793,500.951782 
	C1095.185669,504.281158 1096.823975,507.215759 1096.921997,510.200928 
	C1097.400879,524.784363 1097.471802,539.381226 1097.654541,553.973999 
	C1097.657471,554.210571 1097.249146,554.452209 1096.933350,554.801270 
	C1094.874023,554.618164 1092.531982,553.739685 1090.721069,554.375122 
	C1085.368530,556.253052 1084.852051,553.713562 1084.938477,549.357239 
	C1085.133423,539.538208 1085.165527,529.708313 1084.910400,519.891968 
	C1084.817627,516.325378 1085.054932,512.144836 1080.485962,510.476044 
	C1080.485962,510.476044 1080.668701,510.346161 1080.635010,510.101166 
	C1080.031006,509.591980 1079.460571,509.327759 1078.890137,509.063568 
	C1078.890137,509.063568 1078.967285,509.021057 1078.915649,508.683350 
	C1075.725952,507.588776 1072.598633,506.352661 1069.445190,506.281952 
	C1067.920776,506.247833 1066.347290,508.403625 1064.796021,509.567871 
	C1064.796021,509.567902 1064.619507,509.669159 1064.260010,509.568665 
	C1063.809814,509.563934 1063.641357,509.661713 1063.643799,509.755035 
	C1063.649536,509.975494 1063.736572,510.193817 1063.790649,510.413025 
	C1063.790649,510.413025 1063.681519,510.608887 1063.256958,510.543213 
	C1061.719116,512.018555 1059.992310,513.424011 1059.615601,515.127869 
	C1058.734253,519.113159 1058.169922,523.233765 1058.072266,527.313782 
	C1057.851562,536.531677 1057.990845,545.758179 1057.519409,554.988159 
	C1055.057007,554.997375 1053.027954,554.775635 1051.066772,555.046326 
	C1046.346802,555.698059 1044.829102,554.018677 1044.889648,549.103760 
	C1045.156616,527.460083 1045.005005,505.811188 1045.005005,484.164185 
	C1045.005005,473.146454 1045.005005,473.152313 1055.781128,472.999878 
	C1056.942505,472.983459 1058.102173,472.849854 1059.262695,472.770630 
	C1059.262695,472.770630 1059.144043,472.763062 1059.187500,472.980682 
	C1059.436768,473.457184 1059.642700,473.716095 1059.848633,473.974976 
z"/>
<path fill="#094F9C" opacity="1.000000" stroke="none" 
	d="
M717.991211,510.000488 
	C707.115601,504.710663 699.140503,509.563629 698.996826,521.721924 
	C698.863647,532.986938 698.968445,544.254700 698.968445,555.794067 
	C693.295715,555.794067 688.069397,555.794067 682.563965,555.794067 
	C682.563965,535.643555 682.563965,515.605225 682.563965,495.271454 
	C687.554565,495.271454 692.459595,495.271454 697.754028,495.271454 
	C697.754028,497.610931 697.754028,500.024109 697.754028,503.729858 
	C706.931702,492.485168 717.262024,491.443420 729.040527,497.773315 
	C729.921448,498.570251 730.519836,498.749146 731.118225,498.928040 
	C731.118225,498.928040 731.034241,498.974670 731.064697,499.268890 
	C731.573547,499.759460 732.051819,499.955841 732.530151,500.152191 
	C732.530151,500.152191 732.686584,500.344666 732.576721,500.734924 
	C732.801331,501.196991 733.135864,501.268768 733.470337,501.340576 
	C733.470337,501.340576 733.583862,501.471222 733.444702,501.899658 
	C734.183105,505.150146 735.768738,507.959717 735.818970,510.796448 
	C736.076355,525.319824 735.938049,539.850159 735.938049,554.987793 
	C733.159973,554.987793 730.521118,554.750488 727.942139,555.042542 
	C723.912354,555.498901 722.845459,553.869507 722.933044,549.987244 
	C723.172668,539.366089 723.031250,528.735962 723.007446,518.109436 
	C722.999817,514.707764 722.751282,511.386871 718.510559,510.438690 
	C718.510559,510.438690 718.458923,510.357422 718.557617,510.219818 
	C718.434631,510.054993 718.212952,510.027740 717.991211,510.000488 
z"/>
<path fill="#084D9B" opacity="1.000000" stroke="none" 
	d="
M947.009827,556.897400 
	C945.930298,556.916687 944.850830,556.935974 943.288086,556.496277 
	C939.463074,554.814331 935.973816,553.886597 932.810303,552.306702 
	C926.300659,549.055725 923.715210,544.467896 924.771484,537.330017 
	C929.328369,538.183350 933.861023,539.032166 938.393738,539.880981 
	C938.704651,539.909302 938.911011,540.070984 939.067993,540.948120 
	C943.579773,545.825195 953.616577,546.654968 958.072205,542.847351 
	C958.891602,542.147095 958.752136,540.324646 959.055298,539.020142 
	C959.142456,535.413086 957.176331,533.559692 953.825256,532.867249 
	C949.127625,531.896484 944.420227,530.968262 939.739868,529.919617 
	C928.078247,527.306641 922.807617,521.970947 922.847534,512.924133 
	C922.888672,503.591431 928.840149,496.989380 939.940491,494.642761 
	C947.945984,492.950409 955.837646,493.558899 962.976929,498.057434 
	C968.525513,501.553619 971.681152,506.490753 971.384033,513.974304 
	C966.687500,513.974304 962.091248,514.071350 957.506287,513.886353 
	C956.664551,513.852417 955.565857,512.840149 955.101990,511.995819 
	C952.409851,507.095215 945.410645,504.817535 940.825928,507.867920 
	C939.452515,508.781769 938.088867,511.143372 938.301819,512.612427 
	C938.522217,514.132324 940.445801,516.145569 942.007690,516.587219 
	C946.131531,517.753357 950.471558,518.139343 954.708496,518.927734 
	C956.983582,519.351013 959.268127,519.821960 961.471252,520.516174 
	C968.875793,522.849182 974.200317,527.360901 974.701599,535.526062 
	C975.189636,543.473450 971.830811,549.918762 964.593262,553.512939 
	C960.979309,555.307739 956.761780,555.887268 952.162231,556.705200 
	C950.008057,556.561707 948.508911,556.729553 947.009827,556.897400 
z"/>
<path fill="#084D9B" opacity="1.000000" stroke="none" 
	d="
M597.577759,548.636536 
	C596.526245,551.287048 595.669922,553.594971 594.873291,555.741882 
	C594.232300,555.878052 593.908264,556.007446 593.584595,556.006592 
	C588.262756,555.992981 581.718018,557.839783 577.970032,555.397827 
	C574.368958,553.051514 573.548584,546.303223 571.708679,541.413086 
	C566.007019,526.259277 560.401672,511.069336 554.425781,494.997345 
	C560.295715,494.997345 565.515320,494.772614 570.685974,495.175842 
	C571.797852,495.262512 573.192017,497.467682 573.676758,498.951538 
	C577.580505,510.903442 581.295044,522.917114 585.076904,534.908936 
	C585.370911,535.841187 585.737732,536.750427 586.409851,538.607178 
	C591.176758,523.542358 595.667297,509.350861 600.172180,495.114258 
	C605.743347,495.114258 611.045593,495.114258 617.090820,495.114258 
	C610.569824,513.065674 604.171387,530.679810 597.577759,548.636536 
z"/>
<path fill="#074F9C" opacity="1.000000" stroke="none" 
	d="
M1290.030640,502.995087 
	C1290.197876,503.058624 1290.365112,503.122131 1291.023438,503.374390 
	C1291.986084,502.630371 1292.457520,501.697601 1292.928955,500.764771 
	C1292.906128,500.453308 1293.020630,500.205170 1293.765503,499.880768 
	C1294.476685,499.419952 1294.694702,499.098663 1294.912598,498.777344 
	C1294.912598,498.777344 1294.917480,498.898468 1295.246582,498.898254 
	C1300.776611,495.878418 1306.521118,495.262634 1312.229248,496.132294 
	C1316.308838,496.753784 1320.203735,498.586578 1324.181030,499.878906 
	C1324.181030,499.878906 1324.074829,499.908386 1324.164185,500.120056 
	C1324.554565,500.533112 1324.855591,500.734528 1325.156616,500.935974 
	C1325.156616,500.935974 1325.068481,500.939697 1325.054077,501.295288 
	C1326.026367,507.950836 1327.394287,514.220825 1327.892090,520.559143 
	C1328.385010,526.833740 1328.000000,533.177307 1328.000000,539.490601 
	C1328.000000,544.405579 1328.000000,549.320557 1328.000000,554.296509 
	C1323.403076,554.296509 1319.477661,554.296509 1315.016113,554.296509 
	C1315.016113,552.652222 1315.016235,551.027527 1315.016113,549.402893 
	C1315.015137,539.268372 1315.128540,529.131958 1314.958740,519.000244 
	C1314.885986,514.654663 1314.334961,510.249420 1308.818604,509.120850 
	C1308.818604,509.120850 1308.910278,509.099579 1308.881226,508.759766 
	C1305.765625,507.836060 1302.688232,506.917145 1299.588013,506.832703 
	C1298.344116,506.798828 1297.050415,508.599121 1295.779297,509.564575 
	C1295.779297,509.564545 1295.626465,509.649353 1295.223267,509.557220 
	C1289.769775,512.608215 1289.289307,517.899231 1289.096558,522.931702 
	C1288.753540,531.888916 1288.878662,540.870972 1289.060547,549.837524 
	C1289.127930,553.156433 1287.934937,554.398254 1284.727905,554.029663 
	C1283.580200,553.897705 1282.384521,553.868774 1281.245483,554.033203 
	C1277.118530,554.628845 1275.846313,552.987732 1275.920776,548.812439 
	C1276.166626,535.029236 1276.010620,521.238831 1276.011597,507.451233 
	C1276.012329,495.733032 1276.014160,495.732178 1287.910645,497.264069 
	C1288.053955,497.282501 1288.177734,497.453339 1288.310303,497.553162 
	C1288.883423,499.367218 1289.457031,501.181152 1290.030640,502.995087 
z"/>
<path fill="#094D9B" opacity="1.000000" stroke="none" 
	d="
M1192.018311,494.981659 
	C1195.183350,494.979645 1198.357300,495.126495 1201.510864,494.935181 
	C1204.895264,494.729858 1206.499634,495.882996 1206.202515,499.478607 
	C1205.985718,502.102539 1206.160156,504.758759 1206.160156,507.777832 
	C1201.465332,507.777832 1197.035645,507.777832 1192.097534,507.777832 
	C1192.097534,517.886902 1191.854736,527.641052 1192.331299,537.359924 
	C1192.412842,539.022095 1195.323120,541.175354 1197.364014,541.951904 
	C1199.904053,542.918335 1202.898315,542.690430 1205.668823,542.975403 
	C1205.828613,543.327271 1206.060669,543.613525 1206.080322,543.913574 
	C1206.888672,556.268921 1205.514648,557.652466 1193.067871,557.052185 
	C1181.999146,556.518250 1175.053589,549.244873 1175.004517,538.044678 
	C1174.961426,528.234863 1174.995483,518.424805 1174.995483,508.720520 
	C1171.693237,508.023163 1166.752441,508.239105 1165.971069,506.541077 
	C1164.539551,503.429962 1165.563354,499.188934 1165.563354,494.964844 
	C1168.086304,494.964844 1170.403320,495.157471 1172.658081,494.866730 
	C1173.516724,494.755981 1174.232300,493.535797 1175.477417,492.290588 
	C1176.515137,488.314270 1177.088379,484.868744 1177.689331,481.257172 
	C1179.120605,481.169312 1180.426880,481.010345 1181.731567,481.021545 
	C1191.405029,481.104858 1189.743896,479.997192 1190.096436,489.130066 
	C1190.172485,491.102386 1191.348755,493.032257 1192.018311,494.981659 
z"/>
<path fill="#074F9C" opacity="1.000000" stroke="none" 
	d="
M769.004150,536.047607 
	C771.111511,544.229980 778.391846,541.536255 783.663757,542.861572 
	C785.012695,555.776062 783.125122,557.874634 770.568604,556.937378 
	C767.830872,556.733093 765.163086,555.592041 762.104248,554.322754 
	C761.139954,553.519470 760.534485,553.275757 759.928955,553.032104 
	C759.928955,553.032104 759.985779,552.997681 759.960205,552.674500 
	C754.907532,546.901428 753.443787,540.473389 753.909607,533.166077 
	C754.352234,526.221802 754.085083,519.225159 753.933044,512.255859 
	C753.901367,510.802704 753.006348,509.368378 752.509155,507.925385 
	C752.509155,507.925385 752.243835,508.051636 752.029175,507.575592 
	C749.709290,506.482422 747.604004,505.865295 745.347168,505.203735 
	C745.347168,502.673126 745.347168,500.114990 745.347168,497.296021 
	C749.967773,496.930420 754.495667,497.587128 754.206970,490.404694 
	C753.775330,479.668365 751.692383,481.240753 763.989807,480.974182 
	C766.990601,480.909119 768.058044,481.883667 768.065491,484.949921 
	C768.073669,488.294434 768.761047,491.637299 769.152344,494.980865 
	C769.152344,494.980865 769.044006,494.973755 769.114075,495.328339 
	C772.297119,496.121704 775.400269,496.792572 778.526245,496.925964 
	C781.039856,497.033234 781.883911,497.861969 782.087891,500.410156 
	C782.421570,504.577698 781.342468,506.389130 776.713135,506.178436 
	C774.253784,506.066528 770.677490,504.016541 769.052917,508.108582 
	C769.052917,508.108582 769.025574,508.034363 768.823303,508.122437 
	C768.414001,508.473694 768.207031,508.736877 767.998108,509.468689 
	C767.994019,515.026550 767.961914,520.115967 767.999512,525.204895 
	C768.028381,529.102844 768.145142,533.000122 768.222839,536.897705 
	C768.434570,536.771057 768.673096,536.672791 768.847778,536.507202 
	C768.951782,536.408691 768.955444,536.204346 769.004150,536.047607 
z"/>
<path fill="#134D9C" opacity="1.000000" stroke="none" 
	d="
M244.776108,611.037720 
	C260.826782,616.656128 277.702087,613.699829 294.292480,613.866577 
	C335.921814,614.284912 377.558533,614.093079 419.191345,613.919434 
	C426.263672,613.889893 433.331299,612.736450 440.820251,612.165161 
	C436.859039,613.470459 432.483154,615.775574 428.097595,615.794067 
	C371.873657,616.030762 315.647705,616.053955 259.424561,615.731079 
	C254.606506,615.703369 249.804794,612.825867 244.776108,611.037720 
z"/>
<path fill="#0D4194" opacity="1.000000" stroke="none" 
	d="
M808.590759,507.915344 
	C808.227417,507.250366 807.090332,506.157684 807.072327,505.046814 
	C806.926208,496.052490 806.825073,487.050323 807.067383,478.060150 
	C807.170715,474.226410 806.170471,472.315369 802.086487,473.007446 
	C801.924561,473.034912 801.753906,473.009552 801.587280,473.010986 
	C792.983887,473.085876 794.025818,472.189362 794.012756,480.374146 
	C793.976135,503.365631 794.093811,526.357910 793.913818,549.348083 
	C793.881226,553.502686 794.624634,555.340820 799.319702,555.096924 
	C808.097656,554.640869 806.902100,555.877991 806.981262,547.215027 
	C807.026917,542.217285 806.856201,537.213074 807.067139,532.223816 
	C807.135559,530.605652 808.106506,529.025696 809.088989,527.446411 
	C809.204346,532.396790 808.786987,537.325317 808.618286,542.262451 
	C808.466125,546.715454 808.586182,551.177734 808.586182,555.876465 
	C802.838196,555.876465 797.612427,555.876465 792.166504,555.876465 
	C792.166504,527.759888 792.166504,499.876953 792.166504,471.836609 
	C797.633850,471.836609 802.879944,471.836609 808.335632,471.836609 
	C808.335632,483.930573 808.335632,495.704895 808.590759,507.915344 
z"/>
<path fill="#03388F" opacity="1.000000" stroke="none" 
	d="
M501.026306,473.023041 
	C501.015350,498.295471 501.098450,523.568604 500.901031,548.839600 
	C500.868042,553.061523 502.182373,554.173645 506.266205,554.097229 
	C519.064270,553.857727 531.875305,553.791443 544.669189,554.123962 
	C549.320923,554.244873 550.046509,552.537659 550.145996,548.394836 
	C550.254883,543.861633 548.755066,542.796021 544.450256,542.892639 
	C535.168945,543.101013 525.874695,542.730469 516.292847,542.298340 
	C516.000000,542.000000 515.995117,542.004883 516.464294,542.005737 
	C519.412231,542.005188 521.893311,542.073242 524.369263,541.989014 
	C530.911682,541.766418 537.451904,541.477905 543.992981,541.215637 
	C545.067505,541.166992 546.142090,541.118408 547.852966,541.366577 
	C549.353516,541.772339 550.217712,541.881348 551.081909,541.990356 
	C551.081909,546.462402 551.081909,550.934509 551.081909,555.729614 
	C533.868591,555.729614 516.674255,555.729614 499.022705,555.729614 
	C499.022705,528.406433 499.022705,501.163391 499.403381,473.459503 
	C500.198151,473.006805 500.612244,473.014923 501.026306,473.023041 
z"/>
<path fill="#03388F" opacity="1.000000" stroke="none" 
	d="
M1290.046265,502.536743 
	C1289.457031,501.181152 1288.883423,499.367218 1288.310303,497.553162 
	C1288.177734,497.453339 1288.053955,497.282501 1287.910645,497.264069 
	C1276.014160,495.732178 1276.012329,495.733032 1276.011597,507.451233 
	C1276.010620,521.238831 1276.166626,535.029236 1275.920776,548.812439 
	C1275.846313,552.987732 1277.118530,554.628845 1281.245483,554.033203 
	C1282.384521,553.868774 1283.580200,553.897705 1284.727905,554.029663 
	C1287.934937,554.398254 1289.127930,553.156433 1289.060547,549.837524 
	C1288.878662,540.870972 1288.753540,531.888916 1289.096558,522.931702 
	C1289.289307,517.899231 1289.769775,512.608215 1295.163086,509.620544 
	C1293.991821,513.856079 1291.400391,517.876770 1291.171631,522.027710 
	C1290.560181,533.120972 1290.963257,544.270081 1290.963257,555.711914 
	C1285.420654,555.711914 1280.212036,555.711914 1274.804443,555.711914 
	C1274.804443,535.660156 1274.804443,515.720215 1274.804443,495.782623 
	C1279.746704,495.782623 1284.715088,495.782623 1290.061890,495.782623 
	C1290.061890,498.217804 1290.061890,500.148102 1290.046265,502.536743 
z"/>
<path fill="#03388F" opacity="1.000000" stroke="none" 
	d="
M1309.001709,509.427368 
	C1314.334961,510.249420 1314.885986,514.654663 1314.958740,519.000244 
	C1315.128540,529.131958 1315.015137,539.268372 1315.016113,549.402893 
	C1315.016235,551.027527 1315.016113,552.652222 1315.016113,554.296509 
	C1319.477661,554.296509 1323.403076,554.296509 1328.000000,554.296509 
	C1328.000000,549.320557 1328.000000,544.405579 1328.000000,539.490601 
	C1328.000000,533.177307 1328.385010,526.833740 1327.892090,520.559143 
	C1327.394287,514.220825 1326.026367,507.950836 1325.066406,501.252930 
	C1326.670044,505.106873 1329.425781,509.309357 1329.606567,513.619812 
	C1330.189331,527.519348 1329.823730,541.458618 1329.823730,555.705688 
	C1324.533325,555.705688 1319.464844,555.705688 1313.796143,555.705688 
	C1313.796143,544.281311 1313.796753,532.730042 1313.795654,521.178772 
	C1313.795288,516.745544 1313.242065,512.533386 1309.001709,509.427368 
z"/>
<path fill="#03388F" opacity="1.000000" stroke="none" 
	d="
M1080.671631,510.801208 
	C1085.054932,512.144836 1084.817627,516.325378 1084.910400,519.891968 
	C1085.165527,529.708313 1085.133423,539.538208 1084.938477,549.357239 
	C1084.852051,553.713562 1085.368530,556.253052 1090.721069,554.375122 
	C1092.531982,553.739685 1094.874023,554.618164 1096.933350,554.801270 
	C1097.249146,554.452209 1097.657471,554.210571 1097.654541,553.973999 
	C1097.471802,539.381226 1097.400879,524.784363 1096.921997,510.200928 
	C1096.823975,507.215759 1095.185669,504.281158 1094.412964,500.946899 
	C1096.051758,504.355560 1098.679810,508.100433 1098.814209,511.932739 
	C1099.321411,526.389587 1099.017944,540.874756 1099.017944,555.690674 
	C1094.008179,555.690674 1088.949097,555.690674 1083.063477,555.690674 
	C1083.063477,553.748901 1083.063721,551.668457 1083.063354,549.588074 
	C1083.061646,539.427856 1083.209229,529.263916 1082.957275,519.109924 
	C1082.890869,516.433044 1081.590820,513.786682 1080.671631,510.801208 
z"/>
<path fill="#012A8A" opacity="1.000000" stroke="none" 
	d="
M501.492279,473.016052 
	C500.612244,473.014923 500.198151,473.006805 499.473724,472.994995 
	C499.504791,472.527740 499.844574,471.660034 500.187897,471.658630 
	C516.451660,471.592102 532.715759,471.600647 549.242432,471.600647 
	C549.242432,476.664276 549.242432,481.239166 549.242432,486.337677 
	C538.388428,486.337677 527.632141,486.337677 516.408936,486.410889 
	C517.550598,485.988464 519.152527,485.090210 520.768555,485.064301 
	C529.562378,484.923218 538.359680,484.997162 547.957764,484.997162 
	C547.957764,481.506500 548.344727,478.345947 547.748474,475.383301 
	C547.538879,474.341766 544.926758,473.129272 543.397522,473.109955 
	C529.586182,472.935364 515.771790,473.008514 501.492279,473.016052 
z"/>
<path fill="#03388F" opacity="1.000000" stroke="none" 
	d="
M718.692871,510.755310 
	C722.751282,511.386871 722.999817,514.707764 723.007446,518.109436 
	C723.031250,528.735962 723.172668,539.366089 722.933044,549.987244 
	C722.845459,553.869507 723.912354,555.498901 727.942139,555.042542 
	C730.521118,554.750488 733.159973,554.987793 735.938049,554.987793 
	C735.938049,539.850159 736.076355,525.319824 735.818970,510.796448 
	C735.768738,507.959717 734.183105,505.150146 733.502808,501.963806 
	C735.127747,505.765930 737.625549,509.891479 737.786438,514.106201 
	C738.311096,527.854919 737.983032,541.636169 737.983032,555.728638 
	C732.709839,555.728638 727.649170,555.728638 721.881104,555.728638 
	C721.881104,551.326843 721.881104,546.760925 721.881104,542.195007 
	C721.881165,535.051453 722.186707,527.888977 721.745300,520.772766 
	C721.541809,517.492432 719.877319,514.302734 718.692871,510.755310 
z"/>
<path fill="#012A8A" opacity="1.000000" stroke="none" 
	d="
M452.990845,592.518799 
	C452.605438,591.072021 452.039246,589.164368 452.037170,587.255981 
	C451.987518,541.786682 452.013000,496.317352 451.971466,450.848053 
	C451.968018,447.081207 451.585815,443.314697 451.660889,439.279846 
	C452.319641,441.446625 453.023041,443.881226 453.026245,446.316711 
	C453.090210,494.896912 453.073364,543.477234 452.990845,592.518799 
z"/>
<path fill="#012A8A" opacity="1.000000" stroke="none" 
	d="
M235.036316,441.488281 
	C235.439621,442.283722 235.972702,443.532867 235.973755,444.782440 
	C236.015488,493.820404 236.010437,542.858398 235.994400,591.896362 
	C235.994141,592.712158 235.783813,593.527893 235.397003,594.650696 
	C234.988907,593.306641 234.739532,591.655640 234.738586,590.004456 
	C234.710938,542.143555 234.706223,494.282623 234.710541,446.421722 
	C234.710678,444.928528 234.845795,443.435364 235.036316,441.488281 
z"/>
<path fill="#03388F" opacity="1.000000" stroke="none" 
	d="
M516.466003,521.228882 
	C517.552856,520.827698 519.037659,520.077026 520.536377,520.047974 
	C527.333374,519.916260 534.136414,519.887390 540.932678,520.034058 
	C543.836365,520.096741 545.357605,519.299011 545.025208,516.134399 
	C544.870178,514.657959 544.887939,513.142456 545.018250,511.661469 
	C545.270264,508.796783 543.959656,507.922638 541.224121,507.974396 
	C534.427063,508.103027 527.625000,508.074707 520.827209,507.966339 
	C519.293335,507.941895 517.768799,507.334045 516.097900,506.628479 
	C526.164734,506.262238 536.373535,506.262238 546.753845,506.262238 
	C546.753845,511.673553 546.753845,516.257141 546.753845,521.211609 
	C536.694702,521.211609 526.782532,521.211609 516.466003,521.228882 
z"/>
<path fill="#012A8A" opacity="1.000000" stroke="none" 
	d="
M1146.126709,554.450195 
	C1146.811890,554.185181 1147.449463,554.359680 1148.091431,554.516296 
	C1158.251099,556.993958 1159.994263,555.685730 1159.995239,545.589233 
	C1159.995972,538.446655 1159.785034,531.295776 1160.061035,524.163818 
	C1160.327271,517.283752 1159.285400,510.759094 1156.579224,504.307495 
	C1158.239746,508.064636 1160.759277,512.004944 1160.922852,516.040771 
	C1161.453735,529.134766 1161.121216,542.263733 1161.121216,556.464417 
	C1156.056152,555.931274 1151.068604,555.406311 1146.126709,554.450195 
z"/>
<path fill="#012A8A" opacity="1.000000" stroke="none" 
	d="
M1058.970459,472.438843 
	C1058.102173,472.849854 1056.942505,472.983459 1055.781128,472.999878 
	C1045.005005,473.152313 1045.005005,473.146454 1045.005005,484.164185 
	C1045.005005,505.811188 1045.156616,527.460083 1044.889648,549.103760 
	C1044.829102,554.018677 1046.346802,555.698059 1051.066772,555.046326 
	C1053.027954,554.775635 1055.057007,554.997375 1057.811279,555.005371 
	C1058.761719,555.025757 1058.956055,555.035767 1059.150513,555.045837 
	C1054.203125,555.503845 1049.255859,555.961792 1044.013550,556.447083 
	C1044.013550,527.925964 1044.013550,500.228424 1044.013550,472.107086 
	C1048.871948,472.107086 1053.775024,472.107086 1058.970459,472.438843 
z"/>
<path fill="#03388F" opacity="1.000000" stroke="none" 
	d="
M769.098206,494.515656 
	C768.761047,491.637299 768.073669,488.294434 768.065491,484.949921 
	C768.058044,481.883667 766.990601,480.909119 763.989807,480.974182 
	C751.692383,481.240753 753.775330,479.668365 754.206970,490.404694 
	C754.495667,497.587128 749.967773,496.930420 745.347168,497.296021 
	C745.347168,500.114990 745.347168,502.673126 745.347168,505.203735 
	C747.604004,505.865295 749.709290,506.482422 751.926758,507.470306 
	C751.861084,507.861298 751.683289,507.881500 750.990540,507.615753 
	C748.987610,507.494720 747.499695,507.659668 746.011780,507.824646 
	C745.069092,506.632935 743.510010,505.535065 743.311401,504.230133 
	C742.891907,501.473724 743.183777,498.608978 743.183777,495.295105 
	C746.391907,495.113129 749.456482,494.939301 752.825378,494.748230 
	C752.825378,489.812103 752.825378,485.021210 752.825378,480.100952 
	C758.257751,480.100952 763.375916,480.100952 769.044006,480.100952 
	C769.044006,484.841736 769.044006,489.446075 769.098206,494.515656 
z"/>
<path fill="#0D4194" opacity="1.000000" stroke="none" 
	d="
M876.262085,529.886230 
	C877.475403,529.283203 878.941162,528.109131 880.426514,528.083984 
	C890.243225,527.917480 900.070923,527.782959 909.880371,528.096619 
	C914.211487,528.235046 915.873169,526.598450 914.928406,522.682617 
	C913.542236,516.937378 911.726562,511.295776 910.093506,505.234375 
	C916.889832,511.862549 916.242981,520.715210 916.869507,529.910034 
	C910.431824,529.910034 904.661316,529.910034 898.095947,529.588257 
	C890.545349,529.413208 883.789673,529.559998 877.033936,529.706726 
	C876.863770,529.753357 876.693665,529.799988 876.262085,529.886230 
z"/>
<path fill="#012A8A" opacity="1.000000" stroke="none" 
	d="
M752.637939,508.382874 
	C753.006348,509.368378 753.901367,510.802704 753.933044,512.255859 
	C754.085083,519.225159 754.352234,526.221802 753.909607,533.166077 
	C753.443787,540.473389 754.907532,546.901428 759.952637,552.706787 
	C755.048950,550.201233 752.987488,545.679749 752.911743,540.235901 
	C752.766113,529.772034 752.804688,519.305664 752.637939,508.382874 
z"/>
<path fill="#03388F" opacity="1.000000" stroke="none" 
	d="
M1059.512085,554.806702 
	C1058.956055,555.035767 1058.761719,555.025757 1058.275391,554.998413 
	C1057.990845,545.758179 1057.851562,536.531677 1058.072266,527.313782 
	C1058.169922,523.233765 1058.734253,519.113159 1059.615601,515.127869 
	C1059.992310,513.424011 1061.719116,512.018555 1063.184326,510.628723 
	C1062.356323,514.803650 1060.355957,518.787231 1060.156128,522.859070 
	C1059.638672,533.407837 1059.914429,543.995422 1059.512085,554.806702 
z"/>
<path fill="#03388F" opacity="1.000000" stroke="none" 
	d="
M674.318115,529.488403 
	C669.196289,529.450562 664.430542,529.079163 659.660522,529.013611 
	C651.539307,528.902100 643.415527,528.982910 635.268005,528.000000 
	C641.006409,528.000000 646.744812,528.000244 652.483215,527.999878 
	C657.803467,527.999512 663.130615,527.834778 668.441528,528.057190 
	C671.814270,528.198486 673.629578,527.214294 672.978882,523.626587 
	C672.072266,518.627991 671.022949,513.655334 670.056274,508.272278 
	C674.823303,514.323364 675.289185,521.691711 674.318115,529.488403 
z"/>
<path fill="#0D4194" opacity="1.000000" stroke="none" 
	d="
M938.271973,539.467529 
	C933.861023,539.032166 929.328369,538.183350 924.771484,537.330017 
	C923.715210,544.467896 926.300659,549.055725 932.810303,552.306702 
	C935.973816,553.886597 939.463074,554.814331 942.896484,556.386353 
	C933.397522,555.373230 925.276917,552.002441 922.450684,541.532959 
	C922.111572,540.276855 922.097778,538.932922 921.840149,536.892822 
	C926.752991,536.892822 931.357849,536.794861 935.950317,536.989807 
	C936.711487,537.022095 937.418335,538.333618 938.271973,539.467529 
z"/>
<path fill="#03388F" opacity="1.000000" stroke="none" 
	d="
M769.374390,508.026062 
	C770.677490,504.016541 774.253784,506.066528 776.713135,506.178436 
	C781.342468,506.389130 782.421570,504.577698 782.087891,500.410156 
	C781.883911,497.861969 781.039856,497.033234 778.526245,496.925964 
	C775.400269,496.792572 772.297119,496.121704 769.125610,495.275269 
	C773.868530,494.867645 778.669983,494.867645 784.507751,494.867645 
	C783.906738,499.571320 783.373047,503.748291 782.098877,507.615295 
	C777.907959,507.457489 774.457520,507.609711 771.007141,507.761902 
	C770.570068,507.822418 770.132996,507.882996 769.374390,508.026062 
z"/>
<path fill="#03388F" opacity="1.000000" stroke="none" 
	d="
M1036.021240,528.565491 
	C1022.982056,529.018433 1010.045593,529.018433 997.109192,529.018433 
	C997.106628,528.704407 997.104126,528.390442 997.101562,528.076416 
	C1009.437256,528.076416 1021.773010,528.076416 1034.959717,528.076416 
	C1034.735474,523.562683 1034.537231,519.571411 1034.606445,515.303345 
	C1035.290649,519.388550 1035.707275,523.750549 1036.021240,528.565491 
z"/>
<path fill="#03388F" opacity="1.000000" stroke="none" 
	d="
M1324.032959,499.563477 
	C1320.203735,498.586578 1316.308838,496.753784 1312.229248,496.132294 
	C1306.521118,495.262634 1300.776611,495.878418 1295.188599,498.880371 
	C1302.482056,491.973785 1314.882568,492.138092 1324.032959,499.563477 
z"/>
<path fill="#0D4194" opacity="1.000000" stroke="none" 
	d="
M839.713379,553.647949 
	C846.484558,555.468384 853.395325,556.511353 860.601807,552.931885 
	C862.734619,554.581177 863.410339,556.705139 859.768250,556.792297 
	C854.152649,556.926697 848.513916,556.541321 842.905090,556.112671 
	C841.839844,556.031311 840.868286,554.724792 839.713379,553.647949 
z"/>
<path fill="#012A8A" opacity="1.000000" stroke="none" 
	d="
M1191.925293,494.615326 
	C1191.348755,493.032257 1190.172485,491.102386 1190.096436,489.130066 
	C1189.743896,479.997192 1191.405029,481.104858 1181.731567,481.021545 
	C1180.426880,481.010345 1179.120605,481.169312 1177.689331,481.257172 
	C1177.088379,484.868744 1176.515137,488.314270 1175.564209,491.858276 
	C1175.145142,490.580078 1175.103516,489.203461 1175.365845,487.147400 
	C1175.496948,484.649200 1175.324097,482.830414 1175.151245,481.011658 
	C1180.129883,480.669250 1185.108643,480.326843 1190.527344,480.528931 
	C1191.202393,484.713623 1191.437256,488.353851 1191.672119,491.994080 
	C1191.725586,492.745728 1191.778931,493.497345 1191.925293,494.615326 
z"/>
<path fill="#03388F" opacity="1.000000" stroke="none" 
	d="
M1092.191895,498.199860 
	C1089.161011,497.636902 1085.900269,496.166168 1082.642334,496.171936 
	C1077.210815,496.181580 1071.780884,497.136627 1065.980957,497.501709 
	C1074.531738,491.970184 1083.296631,492.960144 1092.191895,498.199860 
z"/>
<path fill="#0D4194" opacity="1.000000" stroke="none" 
	d="
M958.886230,539.345337 
	C958.752136,540.324646 958.891602,542.147095 958.072205,542.847351 
	C953.616577,546.654968 943.579773,545.825195 939.100403,541.152100 
	C947.111877,545.217407 954.294983,544.813721 958.886230,539.345337 
z"/>
<path fill="#03388F" opacity="1.000000" stroke="none" 
	d="
M516.002441,541.997864 
	C515.552917,541.821411 514.702026,541.636536 514.706299,541.474304 
	C514.884949,534.716248 515.140320,527.960266 515.802979,521.168335 
	C516.116638,527.434204 516.013428,533.735779 515.949463,540.761353 
	C515.990967,541.658508 515.993042,541.831726 515.995117,542.004883 
	C515.995117,542.004883 516.000000,542.000000 516.002441,541.997864 
z"/>
<path fill="#03388F" opacity="1.000000" stroke="none" 
	d="
M441.467773,612.176514 
	C444.870789,606.332581 448.611511,600.401978 452.614990,594.250732 
	C452.307312,601.962952 448.344116,607.815918 441.467773,612.176514 
z"/>
<path fill="#134D9C" opacity="1.000000" stroke="none" 
	d="
M1212.085938,513.388672 
	C1217.052612,512.384094 1222.021362,511.784393 1227.346191,511.089661 
	C1227.415527,514.072754 1225.800537,515.189514 1222.715820,514.762085 
	C1219.196045,514.274292 1215.632568,514.102539 1212.085938,513.388672 
z"/>
<path fill="#012A8A" opacity="1.000000" stroke="none" 
	d="
M769.034546,535.575073 
	C768.955444,536.204346 768.951782,536.408691 768.847778,536.507202 
	C768.673096,536.672791 768.434570,536.771057 768.222839,536.897705 
	C768.145142,533.000122 768.028381,529.102844 767.999512,525.204895 
	C767.961914,520.115967 767.994019,515.026550 768.212769,509.467163 
	C768.429321,508.997009 768.858704,508.999573 768.858704,508.999573 
	C768.927429,517.700562 768.996216,526.401550 769.034546,535.575073 
z"/>
<path fill="#094F9C" opacity="1.000000" stroke="none" 
	d="
M516.464294,542.005737 
	C515.993042,541.831726 515.990967,541.658508 515.996216,541.225464 
	C525.025696,540.990906 534.047852,541.016052 543.531494,541.128418 
	C537.451904,541.477905 530.911682,541.766418 524.369263,541.989014 
	C521.893311,542.073242 519.412231,542.005188 516.464294,542.005737 
z"/>
<path fill="#03388F" opacity="1.000000" stroke="none" 
	d="
M1065.117676,509.377869 
	C1066.347290,508.403625 1067.920776,506.247833 1069.445190,506.281952 
	C1072.598633,506.352661 1075.725952,507.588776 1078.903809,508.725739 
	C1074.430298,507.194397 1069.925049,506.583588 1065.117676,509.377869 
z"/>
<path fill="#03388F" opacity="1.000000" stroke="none" 
	d="
M1296.096680,509.373505 
	C1297.050415,508.599121 1298.344116,506.798828 1299.588013,506.832703 
	C1302.688232,506.917145 1305.765625,507.836060 1308.870850,508.805664 
	C1304.730957,509.188385 1300.572388,509.185394 1296.096680,509.373505 
z"/>
<path fill="#094D9B" opacity="1.000000" stroke="none" 
	d="
M877.489380,529.814636 
	C883.789673,529.559998 890.545349,529.413208 897.631226,529.508972 
	C891.289185,529.808533 884.617065,529.865540 877.489380,529.814636 
z"/>
<path fill="#134D9C" opacity="1.000000" stroke="none" 
	d="
M1215.704346,503.186707 
	C1214.929932,505.944275 1213.872070,508.898529 1212.470581,511.930481 
	C1213.224854,509.133270 1214.322876,506.258362 1215.704346,503.186707 
z"/>
<path fill="#0D4194" opacity="1.000000" stroke="none" 
	d="
M859.316528,550.864136 
	C857.460144,549.146484 855.432556,547.179016 853.502197,544.860107 
	C855.448059,546.543945 857.296692,548.579102 859.316528,550.864136 
z"/>
<path fill="#0D4194" opacity="1.000000" stroke="none" 
	d="
M811.680664,525.196777 
	C812.429138,524.035461 813.459229,522.693420 814.489258,521.351318 
	C815.241821,522.136658 815.994324,522.921997 816.610291,524.064453 
	C814.607178,521.867493 813.242493,523.121582 811.680664,525.196777 
z"/>
<path fill="#094D9B" opacity="1.000000" stroke="none" 
	d="
M1191.773193,491.547150 
	C1191.437256,488.353851 1191.202393,484.713623 1190.983887,480.631287 
	C1191.291504,483.826172 1191.582764,487.463196 1191.773193,491.547150 
z"/>
<path fill="#074F9C" opacity="1.000000" stroke="none" 
	d="
M771.456787,507.854492 
	C774.457520,507.609711 777.907959,507.457489 781.667358,507.557831 
	C778.619690,507.855927 775.263062,507.901489 771.456787,507.854492 
z"/>
<path fill="#0D4194" opacity="1.000000" stroke="none" 
	d="
M840.350647,528.979370 
	C839.412537,528.262390 838.314453,527.299194 837.333252,525.970947 
	C838.363647,526.648315 839.277161,527.690796 840.350647,528.979370 
z"/>
<path fill="#0D4194" opacity="1.000000" stroke="none" 
	d="
M829.638306,540.940796 
	C830.577332,541.684204 831.674500,542.681519 832.645203,544.041626 
	C831.611328,543.334534 830.703918,542.264648 829.638306,540.940796 
z"/>
<path fill="#0D4194" opacity="1.000000" stroke="none" 
	d="
M845.036560,534.616577 
	C844.168091,534.050659 843.195923,533.190430 842.337646,531.964172 
	C843.278625,532.506165 844.105713,533.414307 845.036560,534.616577 
z"/>
<path fill="#094D9B" opacity="1.000000" stroke="none" 
	d="
M1175.079590,481.435059 
	C1175.324097,482.830414 1175.496948,484.649200 1175.431030,486.737915 
	C1175.130859,485.291382 1175.069336,483.574951 1175.079590,481.435059 
z"/>
<path fill="#0D4194" opacity="1.000000" stroke="none" 
	d="
M826.016785,536.426147 
	C826.574341,536.655212 827.217285,537.161194 827.798889,537.980713 
	C827.192383,537.763855 826.647278,537.233459 826.016785,536.426147 
z"/>
<path fill="#0D4194" opacity="1.000000" stroke="none" 
	d="
M833.629639,545.955444 
	C834.263733,546.334106 835.051392,546.955872 835.768799,547.949097 
	C835.060120,547.613220 834.421692,546.905884 833.629639,545.955444 
z"/>
<path fill="#0D4194" opacity="1.000000" stroke="none" 
	d="
M837.632324,551.037476 
	C838.254822,551.410583 839.029724,552.016052 839.706848,552.992859 
	C839.000977,552.666077 838.392944,551.967896 837.632324,551.037476 
z"/>
<path fill="#074F9C" opacity="1.000000" stroke="none" 
	d="
M746.422119,507.898376 
	C747.499695,507.659668 748.987610,507.494720 750.728882,507.555725 
	C749.598999,507.845123 748.215698,507.908600 746.422119,507.898376 
z"/>
<path fill="#03388F" opacity="1.000000" stroke="none" 
	d="
M670.091248,507.630981 
	C669.514893,507.058411 668.880798,506.166565 668.399353,504.934692 
	C669.045837,505.500336 669.539673,506.406006 670.091248,507.630981 
z"/>
<path fill="#03388F" opacity="1.000000" stroke="none" 
	d="
M1292.653564,500.908203 
	C1292.457520,501.697601 1291.986084,502.630371 1291.290527,503.350464 
	C1291.503662,502.442413 1291.941040,501.746979 1292.653564,500.908203 
z"/>
<path fill="#0D4194" opacity="1.000000" stroke="none" 
	d="
M947.419800,556.974182 
	C948.508911,556.729553 950.008057,556.561707 951.745667,556.644165 
	C950.599365,556.946716 949.214539,556.998840 947.419800,556.974182 
z"/>
<path fill="#0D4194" opacity="1.000000" stroke="none" 
	d="
M847.354370,537.246338 
	C846.694031,536.867859 845.891479,536.223083 845.090942,535.219116 
	C845.799377,535.566650 846.505798,536.273315 847.354370,537.246338 
z"/>
<path fill="#0D4194" opacity="1.000000" stroke="none" 
	d="
M851.045593,541.625244 
	C850.483887,541.413513 849.822754,540.919189 849.201233,540.068359 
	C849.809326,540.255493 850.377747,540.799072 851.045593,541.625244 
z"/>
<path fill="#0D4194" opacity="1.000000" stroke="none" 
	d="
M853.352112,544.140625 
	C852.704407,543.783875 851.896667,543.181519 851.093140,542.218018 
	C851.795593,542.536255 852.493835,543.215637 853.352112,544.140625 
z"/>
<path fill="#03388F" opacity="1.000000" stroke="none" 
	d="
M1061.985840,500.779419 
	C1061.967285,501.346252 1061.753662,502.110291 1061.162109,502.901978 
	C1061.119629,502.278656 1061.455078,501.627655 1061.985840,500.779419 
z"/>
<path fill="#03388F" opacity="1.000000" stroke="none" 
	d="
M1063.987915,498.655212 
	C1063.859863,499.206940 1063.539551,499.898499 1062.866455,500.384308 
	C1062.940918,499.717377 1063.368286,499.256226 1063.987915,498.655212 
z"/>
<path fill="#0D4194" opacity="1.000000" stroke="none" 
	d="
M842.348755,531.350586 
	C841.791504,531.124207 841.130798,530.645142 840.620483,529.845520 
	C841.262390,530.049255 841.753845,530.573547 842.348755,531.350586 
z"/>
<path fill="#094F9C" opacity="1.000000" stroke="none" 
	d="
M550.975220,541.641846 
	C550.217712,541.881348 549.353516,541.772339 548.251343,541.436401 
	C548.965088,541.237488 549.916809,541.265442 550.975220,541.641846 
z"/>
<path fill="#0D4194" opacity="1.000000" stroke="none" 
	d="
M809.790771,527.316895 
	C809.941956,526.763733 810.328979,526.044678 811.070312,525.329712 
	C810.958557,525.939453 810.492554,526.545166 809.790771,527.316895 
z"/>
<path fill="#0D4194" opacity="1.000000" stroke="none" 
	d="
M837.342224,525.334473 
	C836.849060,525.160278 836.251099,524.730591 835.860229,524.133667 
	C836.457336,524.337280 836.847412,524.708130 837.342224,525.334473 
z"/>
<path fill="#012A8A" opacity="1.000000" stroke="none" 
	d="
M760.043335,553.251892 
	C760.534485,553.275757 761.139954,553.519470 761.828979,554.007446 
	C761.327637,553.991699 760.742676,553.731689 760.043335,553.251892 
z"/>
<path fill="#0D4194" opacity="1.000000" stroke="none" 
	d="
M910.092285,504.633911 
	C909.660950,504.372162 909.163513,503.818604 908.870972,503.116821 
	C909.392639,503.426392 909.709473,503.884247 910.092285,504.633911 
z"/>
<path fill="#0D4194" opacity="1.000000" stroke="none" 
	d="
M827.751343,538.490784 
	C828.301758,538.754883 828.935120,539.293579 829.435913,540.155151 
	C828.813660,539.907104 828.323914,539.336304 827.751343,538.490784 
z"/>
<path fill="#0D4194" opacity="1.000000" stroke="none" 
	d="
M849.218262,539.516113 
	C848.664368,539.270020 848.011108,538.742493 847.424683,537.873474 
	C848.033936,538.099548 848.576355,538.667114 849.218262,539.516113 
z"/>
<path fill="#03388F" opacity="1.000000" stroke="none" 
	d="
M1094.356689,500.237183 
	C1093.787964,500.061157 1093.072021,499.636475 1092.418701,498.851440 
	C1093.057495,498.990204 1093.633545,499.489380 1094.356689,500.237183 
z"/>
<path fill="#134D9C" opacity="1.000000" stroke="none" 
	d="
M242.811935,609.361572 
	C243.277847,609.376831 243.850220,609.637146 244.311676,610.221680 
	C243.773285,610.232788 243.345840,609.919800 242.811935,609.361572 
z"/>
<path fill="#03388F" opacity="1.000000" stroke="none" 
	d="
M730.966187,498.653809 
	C730.519836,498.749146 729.921448,498.570251 729.181763,498.100800 
	C729.631714,498.000031 730.222900,498.189789 730.966187,498.653809 
z"/>
<path fill="#03388F" opacity="1.000000" stroke="none" 
	d="
M732.385010,499.949341 
	C732.051819,499.955841 731.573547,499.759460 731.082397,499.224243 
	C731.459656,499.172394 731.849792,499.459412 732.385010,499.949341 
z"/>
<path fill="#03388F" opacity="1.000000" stroke="none" 
	d="
M1079.023682,509.315186 
	C1079.460571,509.327759 1080.031006,509.591980 1080.576172,510.196503 
	C1080.086304,510.213501 1079.621704,509.890137 1079.023682,509.315186 
z"/>
<path fill="#0D4194" opacity="1.000000" stroke="none" 
	d="
M836.602234,549.719910 
	C836.853943,549.655884 837.175415,549.764832 837.352661,550.135620 
	C836.981689,550.280273 836.802795,550.112061 836.602234,549.719910 
z"/>
<path fill="#03388F" opacity="1.000000" stroke="none" 
	d="
M1065.169922,497.612091 
	C1065.260132,497.866241 1065.188354,498.199097 1064.840210,498.387695 
	C1064.654053,498.012787 1064.801880,497.828552 1065.169922,497.612091 
z"/>
<path fill="#134D9C" opacity="1.000000" stroke="none" 
	d="
M240.852417,607.368896 
	C241.069107,607.307251 241.392181,607.516235 241.807571,608.007080 
	C241.586182,608.072449 241.272491,607.855957 240.852417,607.368896 
z"/>
<path fill="#03388F" opacity="1.000000" stroke="none" 
	d="
M1294.635986,498.878021 
	C1294.694702,499.098663 1294.476685,499.419952 1293.971924,499.829773 
	C1293.909912,499.605072 1294.134644,499.291870 1294.635986,498.878021 
z"/>
<path fill="#03388F" opacity="1.000000" stroke="none" 
	d="
M1325.070190,500.671326 
	C1324.855591,500.734528 1324.554565,500.533112 1324.167969,500.065063 
	C1324.382812,500.001190 1324.683350,500.203949 1325.070190,500.671326 
z"/>
<path fill="#03388F" opacity="1.000000" stroke="none" 
	d="
M733.396484,501.177124 
	C733.135864,501.268768 732.801331,501.196991 732.619995,500.851135 
	C733.006653,500.659241 733.189758,500.804779 733.396484,501.177124 
z"/>
<path fill="#03388F" opacity="1.000000" stroke="none" 
	d="
M668.376770,504.273590 
	C668.191589,504.360016 667.939819,504.298492 667.851501,504.113770 
	C668.015015,503.990570 668.310120,504.125671 668.376770,504.273590 
z"/>
<path fill="#0D4194" opacity="1.000000" stroke="none" 
	d="
M860.222595,551.999817 
	C860.038635,552.065674 859.790649,552.068054 859.723694,551.877563 
	C859.904663,551.684753 860.158630,551.936279 860.222595,551.999817 
z"/>
<path fill="#03388F" opacity="1.000000" stroke="none" 
	d="
M768.939453,508.764496 
	C768.858704,508.999573 768.429321,508.997009 768.214722,508.998535 
	C768.207031,508.736877 768.414001,508.473694 768.862793,508.125000 
	C769.104492,508.039459 769.020203,508.529419 768.939453,508.764496 
z"/>
<path fill="#012A8A" opacity="1.000000" stroke="none" 
	d="
M1059.891968,473.706940 
	C1059.642700,473.716095 1059.436768,473.457184 1059.230713,472.939758 
	C1059.465332,472.933807 1059.700317,473.186340 1059.891968,473.706940 
z"/>
<path fill="#0D4194" opacity="1.000000" stroke="none" 
	d="
M835.713318,548.496155 
	C835.963928,548.449402 836.284546,548.647766 836.545349,549.148193 
	C836.251404,549.213989 836.017334,548.977661 835.713318,548.496155 
z"/>
<path fill="#03388F" opacity="1.000000" stroke="none" 
	d="
M718.059570,510.153015 
	C718.212952,510.027740 718.434631,510.054993 718.543091,510.265686 
	C718.429749,510.449158 718.127869,510.305511 718.059570,510.153015 
z"/>
<path fill="#03388F" opacity="1.000000" stroke="none" 
	d="
M1063.928223,510.335449 
	C1063.736572,510.193817 1063.649536,509.975494 1063.643799,509.755035 
	C1063.641357,509.661713 1063.809814,509.563934 1064.167969,509.612061 
	C1064.358643,509.957581 1064.235352,510.124878 1063.928223,510.335449 
z"/>
<path fill="#0D4194" opacity="1.000000" stroke="none" 
	d="
M832.619751,544.624146 
	C832.878784,544.568237 833.205811,544.718445 833.414429,545.150513 
	C833.032166,545.293396 832.829407,545.092712 832.619751,544.624146 
z"/>
<path fill="#0D4194" opacity="1.000000" stroke="none" 
	d="
M816.634033,524.706787 
	C816.820618,524.623474 817.067261,524.694214 817.152832,524.885010 
	C816.991760,525.005188 816.694153,524.860840 816.634033,524.706787 
z"/>
<path fill="#FCFDFE" opacity="1.000000" stroke="none" 
	d="
M379.075226,523.767761 
	C378.034149,522.705933 377.063507,521.562195 375.939880,520.596375 
	C370.854126,516.224792 364.921112,517.728943 361.859619,524.321167 
	C358.681122,531.165283 355.730133,538.115112 352.108704,546.310730 
	C346.709045,531.989136 341.844269,519.085388 336.978485,506.182129 
	C336.452942,504.788513 335.987549,503.367554 335.380310,502.010284 
	C333.406036,497.597382 329.996948,494.661865 325.251678,494.127136 
	C320.524536,493.594482 316.991882,496.322083 314.517365,500.120300 
	C309.629486,507.622803 304.931030,515.248779 299.594147,523.250061 
	C288.065979,523.763306 277.097961,523.850159 266.129913,523.937012 
	C257.582397,503.130768 266.470184,472.155426 295.442627,463.110565 
	C311.198212,458.191895 325.624329,461.777710 338.761963,471.348297 
	C340.370361,472.519958 341.887115,473.817444 343.426208,475.040619 
	C347.928406,472.043549 352.061646,468.562897 356.775818,466.283997 
	C374.319183,457.803070 391.519226,458.831299 406.885254,470.984314 
	C422.555054,483.377655 427.507996,500.133545 423.481506,519.607117 
	C423.279938,520.581848 423.102356,521.561462 422.475708,523.071594 
	C407.716980,523.658813 393.396088,523.713318 379.075226,523.767761 
z"/>
<path fill="#FBFCFD" opacity="1.000000" stroke="none" 
	d="
M322.688751,515.032776 
	C323.578339,516.148926 324.813232,517.131531 325.304779,518.401733 
	C330.930725,532.939026 336.523956,547.490295 341.940338,562.106689 
	C343.700104,566.855530 346.323273,570.627563 351.651947,570.757629 
	C356.814911,570.883606 359.461914,567.218933 361.369781,562.778809 
	C364.704498,555.018066 368.276581,547.359253 372.399811,539.411926 
	C386.986664,539.234802 400.922913,539.303589 414.859161,539.372314 
	C409.609711,545.065613 405.084045,551.734619 398.973511,556.267090 
	C381.496033,569.230896 363.401764,581.366272 345.440125,593.666931 
	C344.375427,594.396118 341.903992,594.342529 340.826538,593.591919 
	C323.779266,581.715576 306.761292,569.791382 289.961365,557.569275 
	C285.569122,554.373840 281.941071,550.128052 277.543732,545.905518 
	C276.432739,544.579651 275.740051,543.713074 275.047363,542.846436 
	C275.098694,542.565552 275.036896,542.312256 274.531494,541.652832 
	C274.185974,540.510620 274.170959,539.802124 274.155945,539.093567 
	C274.155945,539.093567 274.064606,539.047913 274.516174,539.146729 
	C284.456665,539.261658 293.948059,539.395935 303.432404,539.195801 
	C305.366364,539.155090 307.273773,537.857483 309.193420,537.139282 
	C309.193420,537.139282 309.087738,537.107971 309.356506,537.063416 
	C309.813660,536.706055 310.002014,536.393311 310.190399,536.080505 
	C310.190399,536.080505 310.088593,536.074097 310.398315,535.945679 
	C311.588379,533.942810 312.468719,532.068420 313.349060,530.194031 
	C313.349060,530.194031 313.220734,530.146484 313.486847,530.032104 
	C313.960297,529.339172 314.167664,528.760498 314.375000,528.181885 
	C314.375000,528.181885 314.234619,528.134460 314.510315,527.998047 
	C315.316010,526.645447 315.846008,525.429260 316.375977,524.213135 
	C316.375977,524.213135 316.245758,524.157593 316.518707,524.038086 
	C317.393555,522.835022 317.995453,521.751526 318.597351,520.668030 
	C318.597321,520.668030 318.584503,520.545898 318.846741,520.328796 
	C319.607086,519.335571 320.105225,518.559387 320.603394,517.783264 
	C320.603394,517.783264 320.679932,517.620605 320.932007,517.385986 
	C321.685638,516.445190 322.187195,515.738953 322.688751,515.032776 
z"/>
<path fill="#012A8A" opacity="1.000000" stroke="none" 
	d="
M341.000000,422.991455 
	C327.707031,422.991547 314.914062,422.991547 302.121063,422.991547 
	C302.121796,422.764832 302.122498,422.538116 302.123199,422.311401 
	C330.306274,422.311401 358.489319,422.311401 386.672394,422.311401 
	C386.675751,422.538055 386.679077,422.764709 386.682404,422.991364 
	C371.621613,422.991364 356.560791,422.991364 341.000000,422.991455 
z"/>
<path fill="#012A8A" opacity="1.000000" stroke="none" 
	d="
M414.663757,539.001160 
	C400.922913,539.303589 386.986664,539.234802 372.593445,539.115906 
	C372.421173,538.709656 372.705231,538.042786 372.990723,538.042175 
	C386.369812,538.013672 399.748993,538.037598 413.128052,538.089539 
	C413.575500,538.091248 414.021576,538.442017 414.663757,539.001160 
z"/>
<path fill="#012A8A" opacity="1.000000" stroke="none" 
	d="
M379.304504,524.120361 
	C393.396088,523.713318 407.716980,523.658813 422.482788,523.443665 
	C422.206177,523.839600 421.482422,524.883972 420.763397,524.880737 
	C407.019867,524.818420 393.276855,524.632935 379.304504,524.120361 
z"/>
<path fill="#03388F" opacity="1.000000" stroke="none" 
	d="
M308.757751,537.096558 
	C307.273773,537.857483 305.366364,539.155090 303.432404,539.195801 
	C293.948059,539.395935 284.456665,539.261658 274.503723,539.196289 
	C275.888397,538.760620 277.725922,538.111084 279.587677,538.032043 
	C289.162384,537.625366 298.743286,537.365173 308.757751,537.096558 
z"/>
<path fill="#012A8A" opacity="1.000000" stroke="none" 
	d="
M265.993469,524.211304 
	C277.097961,523.850159 288.065979,523.763306 299.487213,523.549683 
	C299.354156,523.919434 298.765717,524.851013 298.181976,524.848083 
	C287.406647,524.793884 276.631866,524.627930 265.993469,524.211304 
z"/>
<path fill="#03388F" opacity="1.000000" stroke="none" 
	d="
M312.983063,530.249512 
	C312.468719,532.068420 311.588379,533.942810 310.413147,535.994385 
	C310.951172,534.216064 311.784119,532.260498 312.983063,530.249512 
z"/>
<path fill="#03388F" opacity="1.000000" stroke="none" 
	d="
M315.998657,524.267761 
	C315.846008,525.429260 315.316010,526.645447 314.526978,528.070190 
	C314.719025,526.960022 315.170166,525.641235 315.998657,524.267761 
z"/>
<path fill="#03388F" opacity="1.000000" stroke="none" 
	d="
M318.241577,520.575684 
	C317.995453,521.751526 317.393555,522.835022 316.534485,524.107056 
	C316.813446,523.024841 317.349609,521.754028 318.241577,520.575684 
z"/>
<path fill="#03388F" opacity="1.000000" stroke="none" 
	d="
M275.044922,543.241333 
	C275.740051,543.713074 276.432739,544.579651 277.277893,545.752441 
	C276.634399,545.251221 275.838440,544.443787 275.044922,543.241333 
z"/>
<path fill="#03388F" opacity="1.000000" stroke="none" 
	d="
M273.823914,539.118652 
	C274.170959,539.802124 274.185974,540.510620 274.355835,541.556396 
	C274.171082,540.977051 273.831451,540.060425 273.823914,539.118652 
z"/>
<path fill="#03388F" opacity="1.000000" stroke="none" 
	d="
M320.271301,517.644897 
	C320.105225,518.559387 319.607086,519.335571 318.896240,520.292480 
	C319.102081,519.484314 319.520660,518.495483 320.271301,517.644897 
z"/>
<path fill="#03388F" opacity="1.000000" stroke="none" 
	d="
M322.365540,515.080200 
	C322.187195,515.738953 321.685638,516.445190 320.989746,517.317139 
	C321.211029,516.697754 321.626678,515.912720 322.365540,515.080200 
z"/>
<path fill="#03388F" opacity="1.000000" stroke="none" 
	d="
M314.040741,528.276855 
	C314.167664,528.760498 313.960297,529.339172 313.503235,530.098572 
	C313.404480,529.643494 313.555481,529.007629 314.040741,528.276855 
z"/>
<path fill="#03388F" opacity="1.000000" stroke="none" 
	d="
M309.922852,536.173340 
	C310.002014,536.393311 309.813660,536.706055 309.362579,537.118164 
	C309.285004,536.900391 309.470123,536.583252 309.922852,536.173340 
z"/>
<path fill="#FBFCFD" opacity="1.000000" stroke="none" 
	d="
M1225.369507,537.935852 
	C1226.129028,531.710815 1230.872681,530.819458 1235.269165,530.275330 
	C1239.671265,529.730408 1244.193359,530.155701 1248.844849,530.155701 
	C1249.135620,535.448669 1247.298584,539.504211 1242.963501,542.105286 
	C1238.416138,544.833618 1233.410400,545.118469 1228.647949,542.913635 
	C1227.164551,542.226868 1226.444214,539.891418 1225.369507,537.935852 
z"/>
<path fill="#FBFCFD" opacity="1.000000" stroke="none" 
	d="
M1141.646973,529.998047 
	C1143.220093,530.101135 1144.345215,530.202698 1145.438110,530.301331 
	C1145.884277,541.035339 1137.192017,546.087280 1126.930176,543.568176 
	C1125.037598,543.103577 1122.517944,540.256042 1122.479004,538.460693 
	C1122.432861,536.341919 1124.363770,532.817566 1126.149048,532.284180 
	C1130.963623,530.845642 1136.156372,530.672058 1141.646973,529.998047 
z"/>
<path fill="#FBFCFD" opacity="1.000000" stroke="none" 
	d="
M1016.964905,511.200806 
	C1017.945129,513.447998 1018.724426,515.357422 1019.706604,517.764038 
	C1011.368958,517.764038 1003.839417,517.764038 996.092163,517.764038 
	C995.720703,513.240723 998.027222,510.079163 1001.755249,508.361572 
	C1007.119934,505.889862 1012.366089,506.405273 1016.964905,511.200806 
z"/>
<path fill="#FBFCFD" opacity="1.000000" stroke="none" 
	d="
M646.003540,518.000854 
	C641.863159,518.000732 638.213684,518.000732 634.557068,518.000732 
	C634.855835,511.101990 639.018555,507.149292 645.909302,507.026337 
	C652.978210,506.900177 657.009827,510.460480 657.839783,518.000916 
	C654.029907,518.000916 650.262146,518.000916 646.003540,518.000854 
z"/>
<path fill="#FBFCFD" opacity="1.000000" stroke="none" 
	d="
M895.603516,509.235077 
	C897.381165,512.065063 898.846191,514.670715 900.598022,517.786377 
	C891.725708,517.786377 884.015808,517.786377 876.264465,517.786377 
	C878.182190,507.779480 885.528564,504.473816 895.603516,509.235077 
z"/>
</svg>